<svg width="135" height="32" viewBox="0 0 135 32" fill="none" xmlns="http://www.w3.org/2000/svg">
<path d="M14.52 31.4C11.6933 31.4 9.17333 30.8 6.96 29.6C4.77333 28.4 3.06667 26.72 1.84 24.56C0.64 22.3733 0.0400001 19.8533 0.0400001 17C0.0400001 14.1467 0.64 11.64 1.84 9.48C3.06667 7.29333 4.77333 5.6 6.96 4.4C9.17333 3.2 11.6933 2.6 14.52 2.6C17.3467 2.6 19.8533 3.2 22.04 4.4C24.2533 5.6 25.96 7.29333 27.16 9.48C28.3867 11.64 29 14.1467 29 17C29 19.8533 28.3867 22.3733 27.16 24.56C25.96 26.72 24.2533 28.4 22.04 29.6C19.8533 30.8 17.3467 31.4 14.52 31.4ZM14.52 28.28C16.6267 28.28 18.48 27.84 20.08 26.96C21.7067 26.0533 22.9733 24.7467 23.88 23.04C24.7867 21.3333 25.24 19.32 25.24 17C25.24 14.6267 24.7733 12.6 23.84 10.92C22.9067 9.21333 21.6133 7.92 19.96 7.04C18.3067 6.16 16.4133 5.72 14.28 5.72C12.2267 5.72 10.4 6.17333 8.8 7.08C7.22667 7.98667 6 9.29333 5.12 11C4.26667 12.68 3.84 14.68 3.84 17C3.84 19.32 4.28 21.3333 5.16 23.04C6.06667 24.7467 7.32 26.0533 8.92 26.96C10.5467 27.84 12.4133 28.28 14.52 28.28ZM35.4059 31.4C34.8193 31.4 34.3659 31.24 34.0459 30.92C33.7526 30.5733 33.6059 30.1067 33.6059 29.52V12.88C33.6059 11.6267 34.2059 11 35.4059 11C35.9659 11 36.4059 11.1733 36.7259 11.52C37.0459 11.84 37.2059 12.2933 37.2059 12.88V14.92C38.9659 12.5733 41.3526 11.4 44.3659 11.4H45.3259C45.9659 11.4 46.4593 11.5333 46.8059 11.8C47.1526 12.0667 47.3259 12.4533 47.3259 12.96C47.3259 13.44 47.1393 13.8133 46.7659 14.08C46.4193 14.3467 45.9393 14.48 45.3259 14.48H44.1259C42.0193 14.48 40.3526 15.1067 39.1259 16.36C37.8993 17.5867 37.2859 19.2667 37.2859 21.4V29.52C37.2859 30.1067 37.1126 30.5733 36.7659 30.92C36.4459 31.24 35.9926 31.4 35.4059 31.4ZM52.7488 31.4C52.1621 31.4 51.7088 31.24 51.3888 30.92C51.0688 30.5733 50.9088 30.1067 50.9088 29.52V2.52C50.9088 1.93333 51.0688 1.48 51.3888 1.16C51.7088 0.813331 52.1621 0.639997 52.7488 0.639997C53.3354 0.639997 53.7888 0.813331 54.1088 1.16C54.4554 1.48 54.6288 1.93333 54.6288 2.52L54.6688 14.76C56.8021 12.2533 59.5488 11 62.9088 11C66.1888 11 68.7754 11.92 70.6688 13.76C72.5621 15.5733 73.5088 18.0533 73.5088 21.2C73.5088 24.4267 72.5754 26.9333 70.7088 28.72C68.8421 30.5067 66.2154 31.4 62.8288 31.4C61.0688 31.4 59.5221 31.0933 58.1888 30.48C56.8554 29.84 55.6688 28.8667 54.6288 27.56V29.52C54.6288 30.1067 54.4554 30.5733 54.1088 30.92C53.7888 31.24 53.3354 31.4 52.7488 31.4ZM62.4288 28.32C64.8288 28.32 66.6554 27.72 67.9088 26.52C69.1621 25.2933 69.7888 23.52 69.7888 21.2C69.7888 18.96 69.1354 17.2133 67.8288 15.96C66.5221 14.7067 64.7221 14.08 62.4288 14.08C60.9088 14.08 59.5488 14.3867 58.3488 15C57.1754 15.5867 56.2554 16.4267 55.5888 17.52C54.9488 18.5867 54.6288 19.8133 54.6288 21.2C54.6288 23.4133 55.3221 25.16 56.7088 26.44C58.0954 27.6933 60.0021 28.32 62.4288 28.32ZM80.1484 7.36C79.4551 7.36 78.8684 7.14667 78.3884 6.72C77.9084 6.26667 77.6684 5.70667 77.6684 5.04C77.6684 4.37333 77.9084 3.81333 78.3884 3.36C78.8684 2.90667 79.4551 2.68 80.1484 2.68C80.8951 2.68 81.5084 2.90667 81.9884 3.36C82.4951 3.81333 82.7484 4.37333 82.7484 5.04C82.7484 5.68 82.4951 6.22667 81.9884 6.68C81.5084 7.13333 80.8951 7.36 80.1484 7.36ZM80.1884 31.4C79.6018 31.4 79.1484 31.24 78.8284 30.92C78.5084 30.5733 78.3484 30.1067 78.3484 29.52V12.88C78.3484 12.2933 78.5084 11.84 78.8284 11.52C79.1484 11.1733 79.6018 11 80.1884 11C80.7751 11 81.2284 11.1733 81.5484 11.52C81.8684 11.84 82.0284 12.2933 82.0284 12.88V29.52C82.0284 30.1067 81.8684 30.5733 81.5484 30.92C81.2284 31.24 80.7751 31.4 80.1884 31.4ZM102.106 26.64C102.452 26.9333 102.626 27.2667 102.626 27.64C102.626 27.96 102.479 28.3467 102.186 28.8C101.626 29.6 100.839 30.24 99.8256 30.72C98.8123 31.1733 97.7323 31.4 96.5856 31.4C94.6923 31.4 93.199 30.8667 92.1056 29.8C91.039 28.7067 90.5056 27.2133 90.5056 25.32V14.4H88.5056C87.8923 14.4 87.4123 14.2667 87.0656 14C86.7456 13.7333 86.5856 13.36 86.5856 12.88C86.5856 12.4267 86.7456 12.0667 87.0656 11.8C87.4123 11.5333 87.8923 11.4 88.5056 11.4H90.5056V4.84C90.5056 4.25333 90.6656 3.8 90.9856 3.48C91.3323 3.13333 91.799 2.96 92.3856 2.96C92.9723 2.96 93.4123 3.12 93.7056 3.44C94.0256 3.76 94.1856 4.22666 94.1856 4.84V11.4H99.1056C99.719 11.4 100.186 11.5333 100.506 11.8C100.852 12.04 101.026 12.4 101.026 12.88C101.026 13.36 100.852 13.7333 100.506 14C100.186 14.2667 99.719 14.4 99.1056 14.4H94.1856V25.64C94.1856 26.4933 94.4123 27.16 94.8656 27.64C95.319 28.0933 95.959 28.32 96.7856 28.32C97.3723 28.32 97.8923 28.2267 98.3456 28.04C98.799 27.8267 99.2523 27.48 99.7056 27C100.212 26.4933 100.679 26.24 101.106 26.24C101.479 26.24 101.812 26.3733 102.106 26.64ZM113.978 31.4C111.391 31.4 109.338 30.8133 107.818 29.64C106.324 28.4667 105.578 26.88 105.578 24.88C105.578 22.88 106.364 21.2933 107.938 20.12C109.538 18.9467 111.711 18.36 114.458 18.36C115.898 18.36 117.178 18.5467 118.298 18.92C119.444 19.2933 120.364 19.8 121.058 20.44V18.44C121.058 17 120.591 15.9067 119.658 15.16C118.751 14.3867 117.404 14 115.618 14C113.244 14 111.191 14.5467 109.458 15.64C108.951 15.9333 108.511 16.08 108.138 16.08C107.791 16.08 107.444 15.9333 107.098 15.64C106.804 15.3467 106.658 15 106.658 14.6C106.658 14.1467 106.884 13.7333 107.338 13.36C108.298 12.64 109.511 12.0667 110.978 11.64C112.444 11.2133 113.978 11 115.578 11C118.484 11 120.751 11.6667 122.378 13C124.004 14.3067 124.818 16.1467 124.818 18.52V29.6C124.818 30.1867 124.658 30.64 124.338 30.96C124.044 31.2533 123.604 31.4 123.018 31.4C122.431 31.4 121.978 31.2533 121.658 30.96C121.338 30.64 121.178 30.2133 121.178 29.68V28.56C119.578 30.4533 117.178 31.4 113.978 31.4ZM114.618 28.56C116.564 28.56 118.124 28.2133 119.298 27.52C120.498 26.8 121.098 25.8667 121.098 24.72C121.098 23.6 120.524 22.7333 119.378 22.12C118.258 21.48 116.698 21.16 114.698 21.16C112.964 21.16 111.631 21.48 110.698 22.12C109.764 22.76 109.298 23.68 109.298 24.88C109.298 26.0533 109.751 26.96 110.658 27.6C111.591 28.24 112.911 28.56 114.618 28.56ZM132.222 31.4C131.635 31.4 131.182 31.24 130.862 30.92C130.568 30.5733 130.422 30.1067 130.422 29.52V2.52C130.422 1.90667 130.568 1.44 130.862 1.12C131.182 0.799998 131.635 0.639997 132.222 0.639997C132.808 0.639997 133.262 0.813331 133.582 1.16C133.928 1.48 134.102 1.93333 134.102 2.52V29.52C134.102 30.1067 133.928 30.5733 133.582 30.92C133.262 31.24 132.808 31.4 132.222 31.4Z" fill="white"/>
</svg>
