<svg width="270" height="293" viewBox="0 0 270 293" fill="none" xmlns="http://www.w3.org/2000/svg">
<path d="M85.0007 222.959C84.7742 222.901 84.0713 222.89 82.8863 222.924C81.225 222.924 79.8424 222.901 78.7388 222.855C74.2136 222.686 69.7988 222.03 65.5119 220.891C59.6275 219.311 53.9347 216.72 48.4221 213.119C46.6155 211.934 44.9426 210.72 43.409 209.477C43.3858 209.442 43.3509 209.407 43.3103 209.378C43.3567 209.413 43.3916 209.448 43.409 209.477C43.5194 209 43.7169 208.239 44.0015 207.188C44.5185 205.225 45.5293 203.494 47.0338 202.007C48.1374 200.903 49.6361 199.828 51.524 198.788C52.5522 198.213 53.9696 197.47 55.7761 196.552C57.0657 195.762 57.8093 194.995 58.0126 194.246C58.3727 192.904 57.7744 191.62 56.2176 190.4C54.9164 189.395 53.2842 188.634 51.3033 188.112C49.0669 187.502 46.7143 187.415 44.2397 187.856C41.8813 188.274 39.6332 189.117 37.5014 190.377C35.3985 191.62 33.6268 193.136 32.1804 194.931C30.6759 196.831 29.7116 198.817 29.2818 200.891L29.1656 201.228C30.2925 201.623 31.4659 202.099 32.6742 202.651C31.4659 202.099 30.2983 201.623 29.1656 201.228C17.8847 197.22 9.79869 200.595 4.9134 211.359C3.80971 214.35 3.39148 216.5 3.65869 217.813C3.95495 219.259 4.54745 220.107 5.43622 220.351C5.98806 220.485 6.96394 220.322 8.36389 219.857C9.23522 219.573 10.763 219.05 12.9529 218.283C17.6407 216.825 21.7999 216.581 25.4363 217.557C26.9291 217.964 28.2536 218.69 29.4153 219.741C30.3273 220.566 31.402 221.844 32.6335 223.569C33.3364 224.597 34.5446 226.363 36.2757 228.873C37.9893 231.185 39.8075 233.34 41.7302 235.326C44.7102 238.411 47.4172 240.915 49.8453 242.849C53.3655 245.637 57.0425 247.885 60.8706 249.587C64.0887 251.022 68.2246 252.811 73.2842 254.955C74.1555 255.303 74.8933 255.634 75.5032 255.936C76.0086 255.576 76.5023 255.216 76.9786 254.85C79.43 252.962 81.4573 250.97 83.0606 248.873C85.2505 246.003 86.877 242.599 87.94 238.661C88.8985 235.059 88.9334 231.522 88.0388 228.059C87.6903 226.66 87.2197 225.486 86.633 224.539C86.0928 223.627 85.5468 223.093 85.0065 222.948L85.0007 222.959Z" fill="#A9C0F8"/>
<path d="M43.3966 209.477C44.9301 210.72 46.6031 211.934 48.4097 213.119C53.9223 216.721 59.615 219.311 65.4994 220.892C69.7922 222.03 74.2012 222.686 78.7263 222.855C79.83 222.901 81.2183 222.925 82.8739 222.925C84.0589 222.89 84.7676 222.901 84.9883 222.959C85.5286 223.105 86.0746 223.639 86.6148 224.551C87.2015 225.498 87.672 226.671 88.0206 228.071C88.9151 231.539 88.8803 235.071 87.9218 238.673C86.8588 242.611 85.2323 246.015 83.0423 248.885C81.4391 250.987 79.4118 252.98 76.9604 254.862C76.4841 255.222 75.9961 255.582 75.4849 255.948C74.875 255.646 74.1373 255.315 73.266 254.967C68.2064 252.823 64.0704 251.034 60.8523 249.599C57.0242 247.891 53.3472 245.649 49.827 242.861C47.3989 240.932 44.6978 238.423 41.712 235.338C39.7951 233.352 37.9769 231.202 36.2574 228.885C34.5322 226.375 33.3181 224.609 32.6152 223.581C31.3838 221.856 30.3091 220.578 29.3971 219.753C28.2353 218.702 26.9051 217.975 25.418 217.569C21.7816 216.599 17.6225 216.843 12.9347 218.295C10.7447 219.062 9.2112 219.59 8.34567 219.869C6.94573 220.334 5.96981 220.497 5.41796 220.363C4.52339 220.113 3.93089 219.265 3.64044 217.824C3.36742 216.517 3.78568 214.362 4.89518 211.371C9.78628 200.607 17.8723 197.232 29.1474 201.24L29.2635 200.903C29.6934 198.823 30.6577 196.837 32.1622 194.943C33.6086 193.148 35.3803 191.626 37.4831 190.389C39.615 189.123 41.863 188.28 44.2215 187.868C46.6961 187.426 49.0486 187.514 51.2851 188.123C53.2601 188.64 54.8982 189.407 56.1994 190.412C57.7562 191.632 58.3545 192.916 57.9943 194.258C57.791 195.001 57.0475 195.768 55.7579 196.564C53.9514 197.476 52.534 198.225 51.5058 198.8C49.6179 199.84 48.125 200.915 47.0155 202.018C45.511 203.511 44.5003 205.237 43.9833 207.2C43.6986 208.251 43.5011 209.012 43.3908 209.489C43.3675 209.454 43.3327 209.419 43.292 209.39C42.1419 208.443 41.3983 207.758 41.073 207.339M29.1474 201.257C30.2743 201.652 31.4477 202.129 32.6559 202.681" stroke="black" stroke-width="4" stroke-linecap="round" stroke-linejoin="round"/>
<path d="M121.235 268.896C120.736 271.516 120.172 274.194 119.539 276.924C119.301 277.807 119.185 278.719 119.185 279.666C119.185 282.657 120.428 285.184 122.908 287.235C125.394 289.366 128.398 290.435 131.918 290.435H140.625C144.157 289.715 146.603 287.798 147.962 284.696C149.321 281.6 148.874 276.325 146.626 268.878C147.753 262.791 148.438 256.97 148.676 251.417C148.746 249.564 148.781 248.379 148.793 247.862L124.029 246.183C124.11 251.975 123.175 259.544 121.235 268.878V268.896Z" fill="#A9C0F8"/>
<path d="M124.029 246.183C124.11 251.974 123.175 259.543 121.235 268.878V268.896C120.736 271.516 120.172 274.194 119.539 276.924C119.301 277.807 119.185 278.719 119.185 279.665C119.185 282.657 120.428 285.184 122.908 287.234C125.394 289.366 128.398 290.435 131.918 290.435H140.625C144.157 289.715 146.603 287.804 147.962 284.702C149.321 281.6 148.874 276.325 146.626 268.873C147.753 262.785 148.438 256.964 148.676 251.411C148.746 249.558 148.781 248.373 148.793 247.856" stroke="black" stroke-width="4" stroke-linecap="round" stroke-linejoin="round"/>
<path d="M128.741 290.453L130.448 284.644H118.505C118.337 287.542 120.155 289.332 123.96 290.011C125.377 290.261 126.969 290.406 128.735 290.453M157.088 289.303C157.791 289.006 158.401 288.594 158.935 288.048C159.847 287.089 160.341 285.957 160.428 284.644H130.448L131.924 290.435C136.1 290.435 140.283 290.447 144.477 290.47C145.424 290.47 146.376 290.47 147.323 290.488C149.211 290.522 151.093 290.418 152.981 290.185C154.416 290.093 155.787 289.802 157.1 289.303H157.088Z" fill="#52391B"/>
<path d="M131.924 290.435L130.449 284.644L128.741 290.453C129.746 290.476 130.809 290.47 131.924 290.435ZM121.236 268.89C120.736 271.51 120.173 274.188 119.54 276.918C119.302 277.801 118.994 279.613 118.61 282.355C118.575 282.593 118.552 282.826 118.523 283.052C118.517 283.191 118.512 283.325 118.506 283.459C118.482 283.865 118.482 284.26 118.506 284.644H160.429V284.626H160.411C160.62 282.181 160.4 279.979 159.749 278.022C159.098 276.058 157.559 274.054 155.142 272.009C153.179 270.371 150.908 269.372 148.334 269.012C147.783 268.931 147.213 268.89 146.627 268.878C146.749 268.222 146.859 267.577 146.964 266.932C147.027 266.595 147.086 266.253 147.132 265.916C138.564 262.773 130.129 262.773 121.828 265.916C121.828 265.933 121.823 265.951 121.811 265.968C121.631 266.921 121.439 267.891 121.236 268.884V268.902V268.89Z" fill="#775731"/>
<path d="M124.029 246.183C124.093 250.795 123.512 256.534 122.292 263.401C122.147 264.22 121.99 265.062 121.827 265.916M121.827 265.916C130.128 262.773 138.569 262.773 147.143 265.916C147.276 265.091 147.404 264.272 147.526 263.459C148.13 259.317 148.514 255.303 148.676 251.417C148.746 249.564 148.781 248.379 148.792 247.862M121.827 265.916C121.827 265.916 121.828 265.951 121.822 265.968C121.636 266.921 121.444 267.891 121.235 268.884V268.902C120.735 271.521 120.172 274.199 119.539 276.93C119.301 277.812 118.993 279.625 118.609 282.367C118.575 282.605 118.551 282.837 118.534 283.064C118.522 283.203 118.516 283.337 118.511 283.47C118.487 283.877 118.487 284.272 118.511 284.655H160.433V284.638H160.428C160.631 282.192 160.41 279.991 159.76 278.033C159.109 276.07 157.57 274.066 155.153 272.021C153.19 270.383 150.918 269.384 148.345 269.024C147.793 268.942 147.224 268.902 146.637 268.89C146.759 268.234 146.875 267.589 146.986 266.944C147.044 266.607 147.102 266.264 147.154 265.927M131.935 290.453C136.112 290.453 140.294 290.464 144.488 290.487C145.435 290.487 146.388 290.487 147.334 290.505C149.222 290.54 151.104 290.435 152.992 290.203C154.427 290.11 155.798 289.819 157.111 289.32C157.814 289.024 158.424 288.611 158.958 288.065C159.87 287.107 160.364 285.974 160.451 284.661M128.763 290.47C129.768 290.493 130.825 290.487 131.947 290.453L130.471 284.661L128.763 290.47ZM128.763 290.47C126.992 290.424 125.4 290.278 123.988 290.04C120.184 289.355 118.365 287.56 118.534 284.661" stroke="black" stroke-width="4" stroke-linecap="round" stroke-linejoin="round"/>
<path d="M142.106 270.708C143.53 269.593 145.04 268.983 146.632 268.878" stroke="black" stroke-width="4" stroke-linecap="round" stroke-linejoin="round"/>
<path d="M122.287 263.388C122.147 264.213 121.996 265.055 121.828 265.909C130.129 262.766 138.563 262.766 147.131 265.909C147.271 265.084 147.404 264.265 147.52 263.452C148.125 259.31 148.508 255.296 148.671 251.41C148.74 249.557 148.775 248.372 148.787 247.855L124.023 246.176C124.087 250.788 123.506 256.527 122.281 263.382L122.287 263.388Z" fill="#437480"/>
<path d="M124.029 246.182C124.093 250.794 123.512 256.534 122.292 263.4C122.147 264.219 121.99 265.061 121.827 265.915C130.128 262.772 138.568 262.772 147.142 265.915C147.276 265.09 147.404 264.271 147.526 263.458C148.13 259.316 148.513 255.302 148.676 251.416C148.746 249.563 148.78 248.378 148.792 247.861" stroke="black" stroke-width="4" stroke-linecap="round" stroke-linejoin="round"/>
<path d="M162.407 197.406C164.429 202.814 165.8 208.362 166.526 214.037C166.752 215.867 166.967 217.691 167.171 219.509C167.293 223.505 166.265 227.188 164.069 230.552C161.687 234.234 158.335 235.733 154.025 235.059C150.447 234.519 147.856 232.492 146.253 228.977C145.248 226.799 144.539 224.51 144.121 222.117C143.703 217.389 142.837 212.602 141.53 207.769C140.223 202.948 137.296 197.656 132.759 191.899L150.848 182.686C156.267 186.358 160.125 191.26 162.413 197.406H162.407Z" fill="#A9C0F8"/>
<path d="M150.837 182.686C156.257 186.357 160.114 191.26 162.403 197.406C164.424 202.814 165.795 208.361 166.521 214.037C166.748 215.866 166.963 217.69 167.166 219.509C167.288 223.505 166.26 227.188 164.064 230.551C161.682 234.234 158.33 235.733 154.02 235.059C150.442 234.519 147.851 232.491 146.248 228.977C145.243 226.799 144.534 224.51 144.116 222.117C143.698 217.388 142.832 212.602 141.525 207.769C140.218 202.947 137.291 197.655 132.754 191.899" stroke="black" stroke-width="4" stroke-linecap="round" stroke-linejoin="round"/>
<path d="M140.14 203.807C138.543 200.09 136.086 196.122 132.757 191.899L150.846 182.686C156.266 186.357 160.123 191.26 162.412 197.406C162.766 198.359 163.103 199.311 163.428 200.27C164.398 203.238 165.177 206.247 165.763 209.297C166.071 210.865 166.321 212.445 166.524 214.037C166.751 215.867 166.966 217.691 167.169 219.509C159.443 218.754 151.764 219.619 144.12 222.117C143.852 219.067 143.399 215.994 142.766 212.904C142.406 211.202 141.993 209.488 141.529 207.775C141.18 206.485 140.715 205.167 140.14 203.813V203.807Z" fill="#FEF8DA"/>
<path d="M150.84 182.686C156.26 186.357 160.117 191.26 162.406 197.406C162.76 198.358 163.097 199.311 163.411 200.269C164.387 203.238 165.165 206.247 165.758 209.296C166.066 210.865 166.315 212.445 166.519 214.037C166.745 215.866 166.96 217.69 167.163 219.509C159.438 218.753 151.758 219.619 144.114 222.117C143.846 219.067 143.387 215.994 142.749 212.904C142.394 211.202 141.988 209.488 141.523 207.775C141.174 206.485 140.71 205.166 140.123 203.813C138.531 200.095 136.074 196.128 132.746 191.905" stroke="black" stroke-width="4" stroke-linecap="round" stroke-linejoin="round"/>
<path d="M93.8053 162.175C92.5913 162.645 91.3947 163.168 90.2154 163.731C75.275 170.9 66.0272 182.442 62.4721 198.352C61.2871 206.473 60.561 214.391 60.3054 222.117C60.166 229.61 61.6415 235.942 64.726 241.106C70.9589 251.55 83.7908 257.226 103.21 258.126C114.892 220.397 111.761 188.413 93.8112 162.175M159.649 222.117C159.388 214.391 158.668 206.473 157.482 198.352C154.026 182.936 145.237 171.626 131.11 164.411C150.924 199.956 152.986 230.023 137.291 254.606C145.563 251.771 151.534 247.269 155.211 241.106C158.302 235.942 159.783 229.616 159.649 222.117Z" fill="#A9C0F8"/>
<path d="M113.451 159.195V159.16C113.236 159.148 113.015 159.137 112.789 159.125C112.678 159.125 112.568 159.125 112.452 159.108C112.701 159.131 112.951 159.148 113.195 159.16C113.288 159.171 113.369 159.183 113.451 159.195Z" fill="#A87D4F"/>
<path d="M131.104 164.411C130.657 164.184 130.198 163.958 129.733 163.731C124.639 161.28 119.213 159.769 113.457 159.194C113.375 159.183 113.294 159.171 113.201 159.16C112.957 159.148 112.707 159.13 112.458 159.107L111.557 159.09C111.487 159.078 111.424 159.072 111.354 159.072H108.595C108.461 159.072 108.333 159.072 108.223 159.09C107.863 159.101 107.503 159.113 107.137 159.125V159.142C107.015 159.142 106.875 159.142 106.73 159.16C102.228 159.595 97.9179 160.6 93.8052 162.174C111.755 188.413 114.886 220.397 103.204 258.126C104.11 258.172 105.028 258.207 105.963 258.225H106.503L108.351 258.259H111.586L113.433 258.225H113.974C114.793 258.207 115.6 258.184 116.396 258.155L123.291 257.615L129.815 256.581C130.117 256.528 130.407 256.47 130.697 256.412C133.038 255.913 135.234 255.308 137.285 254.6C152.98 230.017 150.918 199.955 131.104 164.405V164.411Z" fill="#D4D2EC"/>
<path d="M113.452 159.194C119.208 159.769 124.634 161.286 129.728 163.731C130.193 163.952 130.652 164.184 131.111 164.417C145.226 171.625 154.015 182.935 157.471 198.352C158.656 206.473 159.383 214.391 159.638 222.116C159.772 229.61 158.296 235.942 155.212 241.106C151.529 247.269 145.552 251.771 137.285 254.606C135.235 255.314 133.033 255.918 130.698 256.418C130.408 256.476 130.117 256.54 129.827 256.598L123.303 257.62L116.408 258.161C115.612 258.19 114.799 258.207 113.98 258.23H113.44L111.593 258.265H108.357L106.51 258.23H105.97C105.034 258.207 104.117 258.178 103.21 258.137C83.7913 257.231 70.9652 251.55 64.7265 241.106C61.6419 235.942 60.1665 229.616 60.3059 222.116C60.5673 214.391 61.2876 206.473 62.4726 198.352C66.0277 182.442 75.2754 170.899 90.2159 163.731C91.3951 163.162 92.5976 162.645 93.8174 162.18C97.9243 160.6 102.229 159.595 106.731 159.16C106.876 159.148 107.015 159.142 107.137 159.142M107.137 159.125C107.497 159.113 107.858 159.101 108.224 159.09C108.334 159.078 108.462 159.072 108.595 159.072H111.355C111.424 159.072 111.488 159.072 111.558 159.09L112.464 159.113M112.464 159.113C112.574 159.113 112.685 159.119 112.795 159.119C113.022 159.13 113.242 159.142 113.457 159.154M112.464 159.113C112.708 159.13 112.958 159.142 113.202 159.154C113.295 159.165 113.376 159.177 113.457 159.189" stroke="black" stroke-width="4" stroke-linecap="round" stroke-linejoin="round"/>
<path d="M113.464 159.194V159.159C113.249 159.148 113.028 159.136 112.802 159.125H112.482C112.721 159.136 112.965 159.148 113.209 159.159C113.301 159.171 113.383 159.183 113.464 159.194Z" fill="#A87D4F"/>
<path d="M145.378 174.896C144.878 174.379 144.379 173.868 143.868 173.374C141.753 171.341 139.43 169.476 136.891 167.786C134.666 166.305 132.285 164.957 129.746 163.737C125.953 161.907 121.974 160.606 117.803 159.822C117.327 159.729 116.856 159.648 116.38 159.566C115.41 159.421 114.44 159.293 113.464 159.195C113.383 159.183 113.301 159.171 113.208 159.16C112.959 159.148 112.715 159.137 112.482 159.125L111.57 159.09C111.501 159.078 111.437 159.073 111.367 159.073H108.608C108.474 159.073 108.346 159.073 108.236 159.09C107.876 159.102 107.516 159.113 107.15 159.125C107.028 159.137 106.888 159.148 106.743 159.16C106.238 159.206 105.738 159.259 105.25 159.328C104.39 159.427 103.548 159.561 102.729 159.717C102.177 159.81 101.631 159.915 101.103 160.037C97.3326 160.827 93.7078 162.058 90.2283 163.731C88.1777 164.719 86.2318 165.782 84.3845 166.932C72.8539 174.153 65.5521 184.626 62.485 198.352C61.4801 205.23 60.8062 211.957 60.4693 218.544C60.4112 219.741 60.3647 220.932 60.3182 222.117C60.2718 224.748 60.4228 227.234 60.7772 229.569C60.8236 229.93 60.8759 230.29 60.9456 230.656C85.1455 236.401 107.713 238.678 128.643 237.481C139.029 236.889 149.009 235.442 158.587 233.148C159.087 230.371 159.383 228.39 159.488 227.205C159.633 225.579 159.691 223.888 159.656 222.122C159.395 214.397 158.675 206.479 157.49 198.358C156.554 194.182 155.224 190.307 153.51 186.74C153.33 186.38 153.156 186.026 152.988 185.672C152.749 185.23 152.511 184.789 152.279 184.353C152.041 183.912 151.791 183.476 151.535 183.046C150.995 182.134 150.42 181.234 149.81 180.351C148.84 178.951 147.795 177.609 146.679 176.319C146.668 176.308 146.656 176.296 146.644 176.284C146.226 175.808 145.808 175.349 145.39 174.896M135.567 203.656C135.724 203.813 135.805 204.005 135.805 204.231C135.805 204.458 135.724 204.649 135.567 204.806C135.41 204.963 135.218 205.044 134.992 205.044C134.765 205.044 134.573 204.963 134.417 204.806C134.26 204.649 134.178 204.458 134.178 204.231C134.178 204.005 134.26 203.813 134.417 203.656C134.573 203.499 134.765 203.418 134.992 203.418C135.218 203.418 135.41 203.499 135.567 203.656ZM135.567 215.239C135.41 215.396 135.218 215.477 134.992 215.477C134.765 215.477 134.573 215.396 134.417 215.239C134.26 215.082 134.178 214.89 134.178 214.664C134.178 214.437 134.26 214.246 134.417 214.089C134.573 213.932 134.765 213.851 134.992 213.851C135.218 213.851 135.41 213.932 135.567 214.089C135.724 214.246 135.805 214.437 135.805 214.664C135.805 214.89 135.724 215.082 135.567 215.239ZM134.992 224.283C135.218 224.283 135.41 224.365 135.567 224.522C135.724 224.678 135.805 224.87 135.805 225.097C135.805 225.323 135.724 225.515 135.567 225.672C135.41 225.829 135.218 225.91 134.992 225.91C134.765 225.91 134.573 225.829 134.417 225.672C134.26 225.515 134.178 225.323 134.178 225.097C134.178 224.87 134.26 224.678 134.417 224.522C134.573 224.365 134.765 224.283 134.992 224.283ZM126.999 237.475C129.833 210.621 126.598 185.457 117.292 161.965C126.598 185.451 129.833 210.621 126.999 237.475Z" fill="#FEF8DA"/>
<path d="M135.555 224.522C135.398 224.365 135.207 224.284 134.98 224.284C134.754 224.284 134.562 224.365 134.405 224.522C134.248 224.679 134.167 224.87 134.167 225.097C134.167 225.323 134.248 225.515 134.405 225.672C134.562 225.829 134.754 225.91 134.98 225.91C135.207 225.91 135.398 225.829 135.555 225.672C135.712 225.515 135.793 225.323 135.793 225.097C135.793 224.87 135.712 224.679 135.555 224.522ZM134.98 215.477C135.207 215.477 135.398 215.396 135.555 215.239C135.712 215.082 135.793 214.891 135.793 214.664C135.793 214.437 135.712 214.246 135.555 214.089C135.398 213.932 135.207 213.851 134.98 213.851C134.754 213.851 134.562 213.932 134.405 214.089C134.248 214.246 134.167 214.437 134.167 214.664C134.167 214.891 134.248 215.082 134.405 215.239C134.562 215.396 134.754 215.477 134.98 215.477ZM135.793 204.231C135.793 204.005 135.712 203.813 135.555 203.656C135.398 203.499 135.207 203.418 134.98 203.418C134.754 203.418 134.562 203.499 134.405 203.656C134.248 203.813 134.167 204.005 134.167 204.231C134.167 204.458 134.248 204.649 134.405 204.806C134.562 204.963 134.754 205.044 134.98 205.044C135.207 205.044 135.398 204.963 135.555 204.806C135.712 204.649 135.793 204.458 135.793 204.231Z" fill="black"/>
<path d="M113.464 159.195C114.434 159.293 115.404 159.421 116.38 159.566C116.856 159.648 117.327 159.729 117.803 159.822C121.968 160.6 125.953 161.907 129.746 163.737C132.285 164.957 134.672 166.305 136.891 167.786C139.43 169.482 141.759 171.341 143.868 173.374C144.373 173.874 144.879 174.379 145.378 174.896C145.796 175.349 146.215 175.808 146.633 176.284C146.645 176.296 146.656 176.308 146.668 176.319C147.783 177.609 148.829 178.951 149.799 180.351C150.409 181.233 150.984 182.128 151.524 183.046C151.785 183.476 152.029 183.911 152.268 184.353C152.506 184.794 152.744 185.236 152.976 185.671C153.145 186.02 153.319 186.374 153.499 186.74C155.213 190.307 156.543 194.182 157.478 198.358C158.663 206.479 159.389 214.396 159.645 222.122C159.68 223.882 159.622 225.579 159.476 227.205C159.378 228.39 159.076 230.371 158.576 233.148C157.989 236.435 156.334 239.886 153.615 243.499C153.197 244.051 152.755 244.597 152.297 245.126C151.913 245.555 151.518 245.979 151.112 246.398C143.635 253.897 131.263 257.841 113.987 258.236H113.447L111.599 258.271H108.364L106.517 258.236H105.976C92.9993 257.94 82.7931 255.646 75.3518 251.341C75.317 251.318 75.2938 251.3 75.2821 251.289C69.3513 247.844 65.1863 243.133 62.7814 237.144C61.9681 235.123 61.3524 232.962 60.9341 230.656C60.8644 230.295 60.8122 229.935 60.7657 229.569C60.4172 227.234 60.2603 224.748 60.3068 222.117C60.3533 220.932 60.4055 219.741 60.4578 218.544C60.7947 211.963 61.4686 205.23 62.4735 198.352C65.5406 184.626 72.8424 174.152 84.3847 166.932C86.2203 165.782 88.1663 164.713 90.2168 163.731C93.6964 162.058 97.3211 160.827 101.091 160.037C101.62 159.915 102.166 159.804 102.718 159.717C103.542 159.56 104.385 159.427 105.239 159.328C105.727 159.258 106.22 159.206 106.732 159.16C106.877 159.148 107.016 159.136 107.138 159.125C107.498 159.113 107.858 159.102 108.224 159.09C108.335 159.078 108.463 159.073 108.596 159.073H111.355C111.425 159.073 111.489 159.073 111.559 159.09L112.471 159.125M112.471 159.125H112.79C113.017 159.136 113.238 159.148 113.452 159.16M112.471 159.125C112.703 159.136 112.947 159.148 113.197 159.16C113.29 159.171 113.371 159.183 113.452 159.195M158.576 233.142C148.997 235.442 139.012 236.889 128.631 237.475C107.696 238.666 85.1282 236.395 60.9341 230.65M126.976 237.475C129.81 210.621 126.575 185.457 117.269 161.965" stroke="black" stroke-width="4" stroke-linecap="round" stroke-linejoin="round"/>
<path d="M135.789 204.231C135.789 204.458 135.707 204.649 135.55 204.806C135.394 204.963 135.202 205.044 134.975 205.044C134.749 205.044 134.557 204.963 134.4 204.806C134.243 204.649 134.162 204.458 134.162 204.231C134.162 204.005 134.243 203.813 134.4 203.656C134.557 203.499 134.749 203.418 134.975 203.418C135.202 203.418 135.394 203.499 135.55 203.656C135.707 203.813 135.789 204.005 135.789 204.231ZM135.789 214.664C135.789 214.89 135.707 215.082 135.55 215.239C135.394 215.396 135.202 215.477 134.975 215.477C134.749 215.477 134.557 215.396 134.4 215.239C134.243 215.082 134.162 214.89 134.162 214.664C134.162 214.437 134.243 214.246 134.4 214.089C134.557 213.932 134.749 213.851 134.975 213.851C135.202 213.851 135.394 213.932 135.55 214.089C135.707 214.246 135.789 214.437 135.789 214.664ZM135.789 225.097C135.789 225.323 135.707 225.515 135.55 225.672C135.394 225.829 135.202 225.91 134.975 225.91C134.749 225.91 134.557 225.829 134.4 225.672C134.243 225.515 134.162 225.323 134.162 225.097C134.162 224.87 134.243 224.678 134.4 224.522C134.557 224.365 134.749 224.283 134.975 224.283C135.202 224.283 135.394 224.365 135.55 224.522C135.707 224.678 135.789 224.87 135.789 225.097Z" stroke="black" stroke-width="4" stroke-linecap="round" stroke-linejoin="round"/>
<path d="M145.379 174.896C144.88 174.379 144.38 173.868 143.869 173.374C141.754 171.341 139.431 169.476 136.892 167.786C134.668 166.304 132.286 164.957 129.747 163.737C125.954 161.907 121.975 160.606 117.804 159.822C117.328 159.729 116.858 159.647 116.381 159.566C115.411 159.421 114.441 159.293 113.465 159.194C113.384 159.183 113.302 159.171 113.21 159.16C112.96 159.148 112.716 159.136 112.483 159.125L111.571 159.09C111.502 159.078 111.438 159.072 111.368 159.072H108.609C108.475 159.072 108.347 159.072 108.237 159.09C107.877 159.101 107.517 159.113 107.151 159.125C107.029 159.136 106.889 159.148 106.744 159.16C106.239 159.206 105.739 159.258 105.251 159.328C104.392 159.427 103.549 159.56 102.73 159.717C102.178 159.81 101.632 159.915 101.104 160.037C97.3338 160.827 93.709 162.058 90.2295 163.731C88.179 164.719 86.233 165.782 84.3857 166.932C104.252 176.493 117.014 189.703 122.666 206.566C137.781 197.225 145.774 187.129 146.634 176.284C146.216 175.808 145.797 175.349 145.379 174.896Z" fill="#D85A58"/>
<path d="M146.628 176.284C145.768 187.135 137.775 197.231 122.66 206.566C117.008 189.703 104.252 176.493 84.3911 166.932" stroke="black" stroke-width="4" stroke-linecap="round" stroke-linejoin="round"/>
<path d="M156.942 237.713C157.994 235.273 158.737 232.613 159.179 229.738C152.429 230.231 145.662 230.62 138.888 230.905V239.322C144.918 238.921 150.936 238.381 156.942 237.713ZM129.065 236.697V234.495C127.631 234.536 126.196 234.571 124.761 234.594V236.848C126.196 236.824 127.631 236.772 129.065 236.697ZM129.065 234.495V234.478C127.631 234.536 126.196 234.571 124.761 234.576V234.594C126.196 234.571 127.631 234.536 129.065 234.495ZM114.973 240.269V231.515C96.9945 231.643 78.9346 231.045 60.7876 229.72C61.1942 232.386 61.8622 234.855 62.7859 237.138C62.8556 237.33 62.9311 237.521 63.024 237.713C80.4449 239.607 97.7613 240.461 114.973 240.269Z" fill="black"/>
<path d="M114.972 242.256V240.275C97.7607 240.467 80.4443 239.613 63.0234 237.719C65.4632 243.435 69.5526 247.954 75.286 251.289C75.2976 251.3 75.3209 251.318 75.3557 251.341C82.7969 255.645 93.0032 257.94 105.98 258.236H106.521L108.368 258.271H111.603L113.451 258.236H113.991C131.266 257.841 143.645 253.897 151.115 246.397C151.522 245.979 151.917 245.555 152.3 245.125C152.765 244.597 153.207 244.051 153.619 243.499C154.938 241.727 156.047 239.799 156.936 237.725C150.93 238.393 144.912 238.933 138.882 239.334V241.402C130.924 241.855 122.948 242.14 114.967 242.267L114.972 242.256Z" fill="#437480"/>
<path d="M114.973 231.515V242.256C122.954 242.134 130.93 241.843 138.888 241.39V229.11C130.93 229.395 122.954 229.581 114.973 229.668V231.515ZM129.065 234.478V234.495C130.18 234.472 131.301 234.443 132.417 234.408V236.627C128.937 236.749 125.464 236.853 121.984 236.929V234.658C122.908 234.64 123.837 234.617 124.761 234.588V234.57C126.195 234.559 127.63 234.524 129.065 234.472M129.065 234.489V236.691C127.63 236.772 126.195 236.819 124.761 236.842V234.588C123.837 234.617 122.908 234.64 121.984 234.658V236.929C125.464 236.848 128.937 236.749 132.417 236.627V234.408C131.301 234.443 130.18 234.466 129.065 234.495V234.489Z" fill="#F0DA5C"/>
<path d="M113.463 159.194V159.159C113.248 159.148 113.027 159.136 112.8 159.125H112.481C112.719 159.136 112.963 159.148 113.207 159.159C113.3 159.171 113.381 159.183 113.463 159.194Z" fill="#A87D4F"/>
<path d="M113.464 159.194C114.434 159.293 115.404 159.421 116.38 159.566C116.856 159.647 117.327 159.729 117.803 159.822C121.968 160.6 125.953 161.907 129.746 163.737C132.285 164.957 134.672 166.304 136.891 167.786C139.43 169.482 141.759 171.341 143.868 173.374C144.373 173.873 144.879 174.379 145.378 174.896C145.808 175.361 146.238 175.831 146.668 176.319C147.783 177.609 148.829 178.95 149.799 180.35C150.409 181.233 150.984 182.128 151.524 183.046C151.785 183.476 152.029 183.911 152.268 184.353C152.506 184.794 152.744 185.236 152.976 185.671C153.145 186.02 153.319 186.374 153.499 186.74C155.213 190.307 156.543 194.181 157.478 198.358C158.663 206.479 159.389 214.396 159.645 222.122C159.691 224.812 159.534 227.35 159.169 229.743M159.169 229.743C158.727 232.625 157.983 235.279 156.932 237.719C156.038 239.799 154.934 241.721 153.615 243.493C153.197 244.045 152.755 244.591 152.297 245.12C151.913 245.55 151.518 245.974 151.112 246.392C143.635 253.891 131.263 257.835 113.987 258.23H113.447L111.599 258.265H108.364L106.517 258.23H105.976C92.9993 257.934 82.7931 255.64 75.3518 251.335C75.317 251.312 75.2938 251.295 75.2821 251.283C69.5488 247.954 65.4593 243.429 63.0196 237.713C62.9266 237.522 62.8511 237.33 62.7814 237.138C61.8578 234.855 61.1897 232.387 60.7831 229.72C60.7715 229.662 60.7657 229.616 60.7657 229.569C60.4172 227.234 60.2603 224.748 60.3068 222.116C60.5682 214.391 61.2885 206.473 62.4735 198.352C66.0286 182.442 75.2763 170.899 90.2168 163.731C93.6964 162.058 97.3211 160.827 101.091 160.037C101.62 159.915 102.166 159.804 102.718 159.717C103.542 159.56 104.385 159.427 105.239 159.328C105.727 159.258 106.22 159.206 106.732 159.16C106.877 159.148 107.016 159.136 107.138 159.125C107.498 159.113 107.858 159.101 108.224 159.09C108.335 159.078 108.463 159.072 108.596 159.072H111.355C111.425 159.072 111.489 159.072 111.559 159.09L112.471 159.125M159.169 229.743C152.419 230.237 145.651 230.632 138.878 230.923M112.471 159.125H112.79C113.017 159.136 113.238 159.148 113.452 159.16M112.471 159.125C112.703 159.136 112.947 159.148 113.197 159.16C113.29 159.171 113.371 159.183 113.452 159.194M114.963 240.275V231.527M114.963 231.527C96.9842 231.649 78.9243 231.051 60.7773 229.72M114.963 231.527V229.674C122.944 229.581 130.92 229.395 138.878 229.116V230.923M138.878 230.923V241.396C130.92 241.849 122.944 242.14 114.963 242.262V240.281C97.751 240.473 80.4346 239.619 63.0137 237.725M138.878 239.346C144.908 238.939 150.926 238.399 156.932 237.731M124.751 234.617C126.186 234.588 127.62 234.553 129.055 234.518C130.17 234.489 131.292 234.46 132.407 234.425V236.644C128.927 236.766 125.454 236.871 121.974 236.947V234.675C122.898 234.658 123.827 234.635 124.751 234.617Z" stroke="black" stroke-width="4" stroke-linecap="round" stroke-linejoin="round"/>
<path d="M72.3523 268.896C71.8528 271.516 71.2893 274.194 70.6561 276.924C70.4179 277.807 70.3018 278.719 70.3018 279.666C70.3018 282.657 71.5449 285.184 74.0253 287.235C76.5115 289.366 79.5147 290.435 83.0349 290.435H91.7424C95.2742 289.715 97.7198 287.798 99.0791 284.696C100.438 281.6 99.9911 276.325 97.743 268.878C98.8699 262.791 99.5554 256.97 99.7936 251.417C99.8633 249.564 99.8981 248.379 99.9098 247.862L75.1464 246.183C75.2277 251.975 74.2925 259.544 72.3523 268.878V268.896Z" fill="#A9C0F8"/>
<path d="M75.1469 246.183C75.2282 251.975 74.293 259.544 72.3528 268.878V268.896C71.8532 271.516 71.2898 274.194 70.6566 276.924C70.4184 277.807 70.3022 278.719 70.3022 279.666C70.3022 282.657 71.5454 285.184 74.0258 287.235C76.512 289.366 79.5152 290.435 83.0354 290.435H91.7429C95.2747 289.715 97.7203 287.804 99.0796 284.702C100.439 281.6 99.9915 276.325 97.7435 268.873C98.8704 262.785 99.5559 256.964 99.7941 251.411C99.8638 249.558 99.8986 248.373 99.9102 247.856" stroke="black" stroke-width="4" stroke-linecap="round" stroke-linejoin="round"/>
<path d="M79.8603 290.453L81.5681 284.644H69.625C69.4565 287.542 71.2747 289.332 75.0795 290.011C76.4969 290.261 78.0885 290.406 79.8544 290.453M108.208 289.303C108.911 289.006 109.52 288.594 110.055 288.048C110.967 287.089 111.461 285.957 111.548 284.644H81.5681L83.0435 290.435C87.2201 290.435 91.4026 290.447 95.5966 290.47C96.5434 290.47 97.4961 290.47 98.4429 290.488C100.331 290.522 102.213 290.418 104.101 290.185C105.536 290.093 106.907 289.802 108.219 289.303H108.208Z" fill="#52391B"/>
<path d="M83.0439 290.435L81.5684 284.644L79.8606 290.453C80.8656 290.476 81.9286 290.47 83.0439 290.435ZM72.3555 268.89C71.856 271.51 71.2925 274.188 70.6593 276.918C70.4211 277.801 70.1133 279.613 69.7299 282.355C69.695 282.593 69.6718 282.826 69.6427 283.052C69.6369 283.191 69.6311 283.325 69.6253 283.459C69.6021 283.865 69.6021 284.26 69.6253 284.644H111.548V284.626H111.531C111.74 282.181 111.519 279.979 110.869 278.022C110.218 276.058 108.679 274.054 106.262 272.009C104.299 270.371 102.027 269.372 99.454 269.012C98.9022 268.931 98.3329 268.89 97.7462 268.878C97.8682 268.222 97.9786 267.577 98.0831 266.932C98.147 266.595 98.2051 266.253 98.2516 265.916C89.6835 262.773 81.2489 262.773 72.948 265.916C72.948 265.933 72.9422 265.951 72.9306 265.968C72.7505 266.921 72.5588 267.891 72.3555 268.884V268.902V268.89Z" fill="#775731"/>
<path d="M75.1487 246.183C75.2126 250.795 74.6317 256.534 73.4118 263.401C73.2666 264.22 73.1097 265.062 72.9471 265.916M72.9471 265.916C81.248 262.773 89.6883 262.773 98.2623 265.916C98.3959 265.091 98.5237 264.272 98.6457 263.459C99.2498 259.317 99.6332 255.303 99.7958 251.417C99.8656 249.564 99.9004 248.379 99.912 247.862M72.9471 265.916C72.9471 265.916 72.9471 265.951 72.9413 265.968C72.7554 266.921 72.5637 267.891 72.3546 268.884V268.902C71.855 271.521 71.2915 274.199 70.6584 276.93C70.4202 277.812 70.1123 279.625 69.729 282.367C69.6941 282.605 69.6709 282.837 69.6534 283.064C69.6418 283.203 69.636 283.337 69.6302 283.47C69.607 283.877 69.607 284.272 69.6302 284.655H111.553V284.638H111.547C111.751 282.192 111.53 279.991 110.879 278.033C110.229 276.07 108.689 274.066 106.273 272.021C104.309 270.383 102.038 269.384 99.4647 269.024C98.9129 268.942 98.3436 268.902 97.7569 268.89C97.8789 268.234 97.9951 267.589 98.1054 266.944C98.1635 266.607 98.2216 266.264 98.2739 265.927M83.0546 290.453C87.2312 290.453 91.4136 290.464 95.6076 290.487C96.5545 290.487 97.5071 290.487 98.454 290.505C100.342 290.54 102.224 290.435 104.112 290.203C105.547 290.11 106.918 289.819 108.23 289.32C108.933 289.024 109.543 288.611 110.078 288.065C110.99 287.107 111.483 285.974 111.571 284.661M79.8829 290.47C80.8879 290.493 81.9451 290.487 83.0662 290.453L81.5907 284.661L79.8829 290.47ZM79.8829 290.47C78.1112 290.424 76.5196 290.278 75.108 290.04C71.3032 289.355 69.485 287.56 69.6534 284.661" stroke="black" stroke-width="4" stroke-linecap="round" stroke-linejoin="round"/>
<path d="M93.2261 270.708C94.6493 269.593 96.1596 268.983 97.7512 268.878" stroke="black" stroke-width="4" stroke-linecap="round" stroke-linejoin="round"/>
<path d="M73.4057 263.388C73.2663 264.213 73.1152 265.055 72.9468 265.909C81.2477 262.766 89.6822 262.766 98.2504 265.909C98.3898 265.084 98.5234 264.265 98.6396 263.452C99.2437 259.31 99.6271 255.296 99.7897 251.41C99.8594 249.557 99.8943 248.372 99.9059 247.855L75.1426 246.176C75.2065 250.788 74.6256 256.527 73.3999 263.382L73.4057 263.388Z" fill="#437480"/>
<path d="M75.1484 246.182C75.2123 250.794 74.6314 256.534 73.4115 263.4C73.2663 264.219 73.1094 265.061 72.9468 265.915C81.2477 262.772 89.688 262.772 98.262 265.915C98.3956 265.09 98.5234 264.271 98.6454 263.458C99.2495 259.316 99.6329 255.302 99.7955 251.416C99.8653 249.563 99.9001 248.378 99.9117 247.861" stroke="black" stroke-width="4" stroke-linecap="round" stroke-linejoin="round"/>
<path d="M105.247 159.329C104.387 159.428 103.545 159.561 102.726 159.718C102.174 159.811 101.628 159.916 101.1 160.038C97.3297 160.828 93.7049 162.059 90.2254 163.732C75.2849 170.9 66.0371 182.443 62.4821 198.353C61.297 206.474 60.5709 214.392 60.3153 222.118C60.2688 224.749 60.4199 227.235 60.7742 229.57C61.8431 232.091 63.2256 234.363 64.9044 236.396C65.8512 236.994 66.8794 237.552 67.9889 238.075C72.0203 239.962 75.9994 240.904 79.932 240.904C83.0746 240.904 86.0313 240.654 88.808 240.16C89.0926 240.114 89.3715 240.073 89.6561 240.044C99.7055 237.854 105.782 231.737 107.879 221.699C108.111 220.654 108.303 219.707 108.454 218.853C108.634 217.023 108.773 215.112 108.878 213.114C109.011 210.494 109.081 207.729 109.081 204.813C109.081 195.902 108.605 186.857 107.658 177.679C107.228 173.41 106.426 167.299 105.253 159.335M88.0296 175.356C92.6361 175.356 96.5687 177.221 99.8159 180.944C103.069 184.668 104.695 189.164 104.695 194.426C104.695 199.689 103.069 204.185 99.8159 207.909C96.5629 211.632 92.6361 213.497 88.0296 213.497C83.4231 213.497 79.4905 211.632 76.2433 207.909C72.9903 204.185 71.3639 199.689 71.3639 194.426C71.3639 189.164 72.9903 184.668 76.2433 180.944C79.4963 177.221 83.4231 175.356 88.0296 175.356ZM145.381 174.897C144.881 174.38 144.382 173.869 143.871 173.375C141.756 171.342 139.433 169.477 136.894 167.787C141.501 176.936 144.649 186.579 146.345 196.715C147.269 202.28 147.972 207.874 148.448 213.486L148.413 229.477V229.936C148.965 232.829 149.906 235.112 151.242 236.779C152.503 238.359 153.949 239.597 155.576 240.503C158.428 235.455 159.787 229.332 159.659 222.123C159.398 214.397 158.677 206.48 157.492 198.359C156.557 194.183 155.227 190.308 153.513 186.741C153.333 186.381 153.159 186.027 152.991 185.672C152.752 185.231 152.514 184.79 152.282 184.354C152.044 183.912 151.794 183.477 151.538 183.047C150.998 182.135 150.423 181.234 149.813 180.352C148.843 178.952 147.797 177.61 146.682 176.32C146.252 175.832 145.822 175.362 145.393 174.897H145.381Z" fill="#DE9747"/>
<path d="M113.461 159.195V159.161C113.246 159.149 113.026 159.137 112.799 159.126H112.479C112.718 159.137 112.962 159.149 113.206 159.161C113.299 159.172 113.38 159.184 113.461 159.195Z" fill="#A87D4F"/>
<path d="M136.888 167.781C139.427 169.477 141.756 171.336 143.865 173.369C144.37 173.868 144.876 174.374 145.375 174.891C145.805 175.355 146.235 175.826 146.665 176.314C147.78 177.604 148.826 178.945 149.796 180.345C150.406 181.228 150.981 182.123 151.521 183.041C151.782 183.471 152.026 183.906 152.264 184.348C152.503 184.789 152.741 185.231 152.973 185.666C153.142 186.015 153.316 186.369 153.496 186.735C155.21 190.302 156.54 194.176 157.475 198.353C158.66 206.474 159.386 214.391 159.642 222.117C159.775 229.326 158.416 235.454 155.57 240.502C153.937 239.59 152.485 238.347 151.225 236.767C149.889 235.1 148.948 232.817 148.396 229.924C148.396 230.848 148.384 231.289 148.378 231.26C148.245 230.767 148.251 230.168 148.396 229.465L148.431 213.474C147.954 207.862 147.257 202.274 146.328 196.703C144.632 186.561 141.483 176.918 136.877 167.775C134.652 166.294 132.27 164.946 129.732 163.726C125.939 161.896 121.959 160.595 117.789 159.811C117.312 159.718 116.842 159.637 116.365 159.555C115.395 159.41 114.425 159.282 113.449 159.184C113.368 159.172 113.287 159.16 113.194 159.149C112.944 159.137 112.7 159.125 112.468 159.114L111.556 159.079C111.486 159.067 111.422 159.062 111.352 159.062H108.593C108.46 159.062 108.332 159.062 108.221 159.079C107.861 159.091 107.501 159.102 107.135 159.114C107.013 159.125 106.874 159.137 106.729 159.149C106.223 159.195 105.724 159.247 105.236 159.317C106.409 167.275 107.211 173.392 107.641 177.662C108.587 186.84 109.064 195.884 109.064 204.795C109.064 207.711 108.994 210.476 108.86 213.096C108.762 215.094 108.616 217.011 108.436 218.835C108.285 219.689 108.099 220.636 107.867 221.681C105.758 231.719 99.6823 237.836 89.6329 240.026C89.3483 240.061 89.0695 240.102 88.7848 240.142C86.0082 240.642 83.0515 240.886 79.9088 240.886C75.982 240.886 71.9971 239.945 67.9657 238.057C66.8562 237.534 65.8338 236.976 64.8928 236.378C63.2024 234.345 61.8199 232.074 60.7511 229.553C60.4025 227.217 60.2457 224.731 60.2922 222.1C60.5536 214.374 61.2739 206.456 62.4589 198.336C66.0139 182.425 75.2617 170.883 90.2022 163.714C93.6817 162.041 97.3065 160.81 101.076 160.02C101.605 159.898 102.151 159.788 102.703 159.701C103.528 159.544 104.37 159.41 105.224 159.311M113.438 159.143C113.223 159.131 113.002 159.12 112.776 159.108H112.456M148.384 229.913V229.454M104.666 194.409C104.666 199.672 103.04 204.168 99.7869 207.891C96.5339 211.615 92.6071 213.479 88.0006 213.479C83.3942 213.479 79.4615 211.615 76.2143 207.891C72.9614 204.168 71.3349 199.672 71.3349 194.409C71.3349 189.146 72.9614 184.65 76.2143 180.926C79.4673 177.203 83.3942 175.338 88.0006 175.338C92.6071 175.338 96.5397 177.203 99.7869 180.926C103.04 184.65 104.666 189.146 104.666 194.409Z" stroke="black" stroke-width="4" stroke-linecap="round" stroke-linejoin="round"/>
<path d="M66.6886 286.881H65.9276C68.7624 287.886 71.8411 288.391 75.1579 288.391C82.5294 288.391 89.1226 285.882 94.9257 280.869C92.3407 281.827 89.7615 281.252 87.1824 279.143C82.756 282.768 78.0682 285.121 73.1248 286.207C71.0336 286.66 68.8902 286.887 66.6886 286.887M67.6528 275.472C66.7467 275.472 65.8811 275.414 65.0447 275.304C65.823 280.857 68.5184 284.493 73.1248 286.213C78.0682 285.127 82.756 282.774 87.1824 279.149C87.7691 278.65 88.3616 278.138 88.9599 277.61C84.0281 280.264 79.7586 278.957 76.1571 273.695C73.4443 274.88 70.6154 275.472 67.6528 275.472ZM82.9128 269.291C83.1626 269.065 83.4124 268.833 83.6564 268.594C84.2895 268.008 84.8879 267.404 85.4513 266.782C87.6413 264.354 89.3607 261.688 90.598 258.789L82.3842 258.214C82.2622 261.815 82.4365 265.51 82.907 269.291M44.7832 273.41C46.1134 269.628 48.4544 266.863 51.7946 265.109C50.2145 261.63 49.6801 257.708 50.2029 253.34C47.3798 253.183 44.5509 254.711 41.7161 257.929C41.3908 263.663 42.4132 268.827 44.7832 273.41ZM57.9462 272.649C54.9313 275.066 53.1596 278.406 52.6252 282.675C56.372 285.365 60.8042 286.77 65.9218 286.892H66.6828C68.8843 286.892 71.0278 286.666 73.119 286.213C68.5126 284.499 65.8172 280.863 65.0388 275.304C62.3842 274.967 60.02 274.078 57.9404 272.643M53.2293 267.717C53.4326 268.013 53.6418 268.304 53.8567 268.6C55.0533 270.25 56.4126 271.598 57.9404 272.649C60.02 274.084 62.3842 274.967 65.0388 275.309C65.8753 275.42 66.7467 275.478 67.647 275.478C70.6038 275.478 73.4385 274.885 76.1513 273.7C77.6848 273.032 79.1835 272.173 80.6415 271.11C78.8814 271.574 77.0749 271.807 75.2219 271.807C69.4304 271.807 64.8588 269.535 61.5012 264.999C60.8565 264.116 60.2988 263.204 59.8225 262.257C57.0109 262.234 54.8152 264.058 53.2351 267.729M53.2351 267.729C52.6833 266.881 52.2012 266.015 51.7946 265.121C48.4544 266.869 46.1134 269.64 44.7832 273.422C45.4512 274.723 46.2296 275.972 47.1184 277.18C48.7449 279.393 50.5805 281.229 52.6252 282.687C53.1538 278.417 54.9313 275.077 57.9462 272.661C56.4242 271.609 55.0592 270.262 53.8625 268.612C53.6476 268.316 53.4385 268.025 53.2351 267.729ZM50.9639 249.286C51.7887 246.091 53.119 243.151 54.9604 240.479C52.0385 242.059 49.4187 241.821 47.1009 239.771C44.6496 244.005 43.0115 248.641 42.1866 253.677C41.9485 255.135 41.7916 256.558 41.7103 257.947C44.545 254.729 47.374 253.201 50.1971 253.358C50.2436 252.928 50.2958 252.498 50.3655 252.068C50.5224 251.121 50.7199 250.192 50.9581 249.291M57.9171 249.442C55.8956 247.252 53.5779 247.2 50.9581 249.291C50.7199 250.198 50.5224 251.121 50.3655 252.068C50.2958 252.498 50.2436 252.928 50.1971 253.358C49.6801 257.726 50.2087 261.653 51.7887 265.126C52.1954 266.021 52.6775 266.887 53.2293 267.735C54.8094 264.063 57.0051 262.239 59.8166 262.263C57.9055 258.539 57.2781 254.264 57.9171 249.442ZM70.383 229.222C68.2512 229.721 66.1948 230.552 64.2198 231.731C62.5062 232.736 60.8448 233.997 59.2416 235.507C57.6035 237.052 56.1745 238.713 54.9546 240.485C53.1132 243.163 51.7829 246.096 50.9581 249.291C53.5779 247.2 55.8956 247.252 57.9171 249.442C57.952 249.14 57.9926 248.832 58.0333 248.53C59.0847 242.106 62.024 236.616 66.857 232.068C67.9956 230.982 69.169 230.035 70.3772 229.222M64.214 231.731L61.9253 224.755C59.4623 226.201 57.0748 228.008 54.7629 230.174C51.6551 233.108 49.0992 236.309 47.0894 239.776C49.4013 241.833 52.0211 242.071 54.9488 240.485C56.1686 238.713 57.5976 237.052 59.2358 235.507C60.839 233.997 62.5004 232.736 64.214 231.731ZM75.2567 228.647C75.733 228.647 76.1919 228.664 76.645 228.699C75.4832 226.282 75.6633 223.535 77.1853 220.45C71.812 220.508 66.7234 221.943 61.9253 224.755L64.214 231.731C66.189 230.558 68.2454 229.721 70.3772 229.222C71.9572 228.838 73.5838 228.647 75.2567 228.647ZM123.749 267.537C121.048 267.223 118.882 266.41 117.243 265.097C116.634 268.385 114.38 271.017 110.488 272.992C112.823 275.466 115.82 277.046 119.462 277.732C124.115 276.669 125.544 273.271 123.749 267.537ZM88.9425 277.633C89.0877 277.476 89.2445 277.331 89.4014 277.192C91.5332 275.182 93.4153 273.038 95.0418 270.755C95.8783 269.582 96.6451 268.379 97.348 267.148C93.9962 269.826 90.0229 269.71 85.4397 266.811C84.8762 267.433 84.2779 268.037 83.6448 268.623C83.395 268.862 83.1452 269.094 82.9012 269.32C82.1577 269.977 81.3967 270.581 80.63 271.133C79.1719 272.196 77.679 273.056 76.1396 273.724C79.7412 278.987 84.0107 280.288 88.9425 277.639M94.9024 280.909C95.5821 280.299 96.2501 279.66 96.9181 278.998C98.9628 276.953 100.706 274.775 102.152 272.463C99.4856 273.695 97.1156 273.131 95.036 270.767C93.4095 273.05 91.5274 275.193 89.3956 277.203C89.2387 277.337 89.0877 277.488 88.9367 277.645C88.3384 278.173 87.7459 278.69 87.1592 279.184C89.7325 281.298 92.3117 281.874 94.9024 280.909ZM105.08 260.921C105.283 262.094 105.533 263.21 105.823 264.255C106.851 267.88 108.402 270.79 110.482 272.998C114.38 271.023 116.628 268.391 117.238 265.103C115.216 263.477 114.008 261.078 113.613 257.906C112.068 260.537 109.221 261.542 105.074 260.921M114.171 249.164C111.202 250.813 107.926 250.935 104.348 249.535C104.237 253.817 104.475 257.61 105.074 260.915C109.216 261.537 112.062 260.532 113.613 257.9C113.317 255.449 113.508 252.539 114.171 249.158M104.685 240.113C109.099 240.961 112.219 240.497 114.037 238.725C113.212 231.406 110.703 226.393 106.497 223.686C106.758 227.107 104.824 229.611 100.706 231.191C102.919 233.189 104.243 236.163 104.685 240.119M101.972 253.689C102.129 252.73 102.257 251.778 102.344 250.842C99.2475 253.787 95.8318 254.868 92.0967 254.078C91.725 255.728 91.2138 257.308 90.5748 258.818C89.3317 261.722 87.6181 264.383 85.4281 266.811C90.0113 269.715 93.9788 269.826 97.3364 267.148C99.6425 263.035 101.188 258.551 101.978 253.683M104.754 240.741C104.969 243.279 104.836 246.213 104.348 249.53C107.926 250.93 111.202 250.808 114.171 249.158C114.42 245.272 114.374 241.798 114.037 238.725C112.219 240.497 109.105 240.961 104.685 240.113C104.708 240.317 104.731 240.526 104.754 240.741ZM92.5091 252.074C92.666 251.057 92.7822 250.064 92.8461 249.094L83.4647 248.554C82.8431 251.714 82.4772 254.943 82.361 258.243L90.5748 258.818C91.2196 257.308 91.725 255.722 92.0967 254.078C92.2536 253.422 92.393 252.759 92.5034 252.08M92.027 241.525C92.7183 243.86 92.9855 246.387 92.8402 249.094C92.7705 250.064 92.6602 251.057 92.5034 252.074C92.393 252.754 92.2536 253.416 92.0967 254.072C95.8318 254.862 99.2475 253.782 102.344 250.837C102.849 245.428 102.204 240.52 100.398 236.117C99.5611 239.55 96.7729 241.351 92.0328 241.519M89.018 235.507C88.7334 235.123 88.4487 234.763 88.1525 234.421C85.9857 238.946 84.4232 243.657 83.4589 248.548L92.8402 249.088C92.9855 246.375 92.7183 243.854 92.027 241.519C91.3822 239.364 90.3773 237.36 89.0122 235.507M100.7 231.185C99.3927 230 97.7662 229.152 95.8202 228.647C96.2385 229.146 96.6393 229.652 97.0227 230.168C97.133 230.314 97.2492 230.471 97.3596 230.627C98.5911 232.364 99.6018 234.194 100.392 236.117C102.198 240.52 102.849 245.428 102.338 250.837C102.245 251.772 102.123 252.724 101.966 253.683C101.176 258.551 99.6309 263.035 97.3247 267.148C96.6219 268.379 95.8551 269.582 95.0186 270.755C97.0982 273.114 99.4682 273.677 102.134 272.451C103.726 269.89 104.952 267.154 105.812 264.255C105.515 263.204 105.271 262.094 105.068 260.921C104.47 257.61 104.226 253.817 104.342 249.541C104.83 246.224 104.963 243.291 104.748 240.752C104.725 240.537 104.702 240.328 104.679 240.125C104.237 236.175 102.913 233.195 100.7 231.197M92.3175 225.254C90.9872 224.214 89.5756 223.349 88.0827 222.663C84.9459 221.194 81.4083 220.462 77.4815 220.462H77.1795C75.6575 223.546 75.4716 226.294 76.6392 228.71C80.3976 228.96 83.6099 230.232 86.2762 232.539C90.4528 231.034 92.4685 228.612 92.3233 225.254M95.8318 228.658C94.7456 227.38 93.578 226.247 92.3233 225.254C92.4685 228.606 90.4528 231.034 86.2762 232.539C86.9442 233.102 87.5716 233.735 88.1583 234.438C88.4545 234.775 88.7392 235.141 89.0238 235.524C90.3889 237.377 91.3938 239.381 92.0386 241.537C96.7787 241.368 99.5728 239.567 100.403 236.134C99.6134 234.217 98.6027 232.388 97.3712 230.645C97.2608 230.488 97.1447 230.337 97.0343 230.186C96.6509 229.669 96.2501 229.158 95.8318 228.664M92.3233 225.26C93.578 226.253 94.7456 227.386 95.8318 228.664C97.772 229.169 99.3985 230.017 100.711 231.202C104.836 229.622 106.764 227.119 106.503 223.697C102.169 220.886 96.0293 220.543 88.0944 222.663C89.5873 223.355 90.9988 224.214 92.3291 225.254L92.3233 225.26Z" fill="#F7E3A2"/>
<path d="M88.1121 222.616C89.605 223.308 91.0165 224.167 92.3468 225.207C93.6015 226.2 94.7691 227.333 95.8553 228.611C97.7955 229.117 99.422 229.965 100.735 231.15C104.859 229.57 106.788 227.066 106.526 223.645C102.193 220.833 96.0528 220.49 88.1179 222.611C84.981 221.141 81.4434 220.409 77.5166 220.409H77.2146C75.6926 223.494 75.5068 226.241 76.6743 228.658C80.4327 228.907 83.645 230.18 86.3113 232.486C90.4879 230.981 92.5036 228.559 92.3584 225.201M88.1934 234.379C88.4896 234.716 88.7743 235.082 89.0589 235.466C90.424 237.319 91.4289 239.323 92.0737 241.478M92.0737 241.478C96.8138 241.309 99.6079 239.509 100.439 236.076C99.6485 234.159 98.6378 232.329 97.4063 230.586C97.296 230.429 97.1798 230.278 97.0694 230.127C96.686 229.61 96.2852 229.099 95.8669 228.605M92.0737 241.478C92.765 243.813 93.0322 246.34 92.887 249.047C92.8173 250.017 92.7069 251.01 92.5501 252.027C92.4397 252.707 92.3003 253.369 92.1435 254.025C95.8786 254.815 99.2942 253.735 102.39 250.79M102.39 250.79C102.896 245.381 102.251 240.473 100.444 236.07M102.39 250.79C102.297 251.725 102.175 252.677 102.019 253.636C101.229 258.504 99.6834 262.988 97.3772 267.101C96.6744 268.332 95.9076 269.535 95.0711 270.708C97.1507 273.067 99.5207 273.63 102.187 272.404C103.779 269.843 105.004 267.107 105.864 264.208C105.568 263.157 105.324 262.047 105.121 260.874C104.522 257.563 104.278 253.77 104.394 249.494M114.078 238.678C112.26 240.45 109.146 240.914 104.726 240.066C104.749 240.27 104.772 240.479 104.795 240.694C105.01 243.232 104.877 246.166 104.389 249.483C107.967 250.883 111.243 250.761 114.211 249.111C114.461 245.225 114.415 241.751 114.078 238.678ZM114.078 238.678C113.253 231.359 110.744 226.346 106.538 223.639M100.752 231.15C102.965 233.148 104.29 236.122 104.731 240.078M105.121 260.88C109.262 261.501 112.109 260.496 113.66 257.865C113.363 255.413 113.555 252.503 114.217 249.122M92.1492 254.037C91.7775 255.686 91.2663 257.266 90.6273 258.777C89.3842 261.681 87.6706 264.342 85.4806 266.77C90.0639 269.674 94.0313 269.785 97.3889 267.107M102.199 272.41C100.752 274.722 99.0096 276.906 96.9648 278.945C96.2968 279.613 95.6288 280.252 94.9491 280.856C89.146 285.87 82.5588 288.379 75.1815 288.379C71.8646 288.379 68.7858 287.874 65.9511 286.869C60.8335 286.747 56.4013 285.341 52.6545 282.651C50.6098 281.193 48.7742 279.358 47.1477 277.145C46.2531 275.936 45.4747 274.682 44.8125 273.386C42.4425 268.803 41.4201 263.639 41.7454 257.905C41.8267 256.517 41.9836 255.094 42.2217 253.636C43.0466 248.6 44.6847 243.964 47.1361 239.729M47.1361 239.729C49.1459 236.261 51.7019 233.061 54.8096 230.127C57.1216 227.961 59.5149 226.154 61.972 224.708M47.1361 239.729C49.448 241.786 52.0678 242.024 54.9955 240.438C56.2154 238.666 57.6444 237.005 59.2825 235.46C60.8857 233.95 62.5471 232.689 64.2607 231.684M61.972 224.708C66.7702 221.896 71.8587 220.461 77.232 220.403M61.972 224.708L64.2607 231.684M95.0828 270.708C93.4563 272.991 91.5742 275.135 89.4423 277.145C89.2855 277.278 89.1344 277.429 88.9834 277.586C88.3851 278.115 87.7926 278.632 87.2059 279.125C89.7792 281.24 92.3584 281.815 94.9491 280.851M105.876 264.202C106.904 267.827 108.455 270.737 110.534 272.945M110.534 272.945C114.432 270.97 116.68 268.338 117.29 265.05M110.534 272.945C112.87 275.419 115.867 276.999 119.509 277.685C124.162 276.622 125.591 273.224 123.796 267.49C121.095 267.176 118.928 266.363 117.29 265.05M117.29 265.05C115.269 263.424 114.06 261.025 113.665 257.853M70.424 229.175C72.004 228.791 73.6305 228.6 75.3034 228.6C75.7797 228.6 76.2387 228.617 76.6918 228.652M70.424 229.175C68.2921 229.674 66.2358 230.511 64.2607 231.684M70.424 229.175C69.2157 229.988 68.0423 230.935 66.9038 232.021C62.0708 236.569 59.1315 242.059 58.08 248.483C58.0336 248.785 57.9929 249.093 57.9639 249.395C57.3191 254.217 57.9523 258.492 59.8634 262.216C60.3397 263.163 60.8973 264.08 61.5421 264.957C64.8939 269.494 69.4713 271.766 75.2628 271.766C77.1158 271.766 78.9224 271.533 80.6825 271.068C81.4492 270.517 82.2044 269.912 82.9538 269.256C82.4774 265.474 82.3032 261.78 82.431 258.178C82.5413 254.879 82.9131 251.649 83.5347 248.489C84.4931 243.598 86.0557 238.893 88.2282 234.362C87.6415 233.659 87.0142 233.032 86.3461 232.462M55.0129 240.421C53.1715 243.099 51.8413 246.032 51.0164 249.227M51.0164 249.227C53.6362 247.136 55.954 247.188 57.9755 249.378M51.0164 249.227C50.7782 250.127 50.5808 251.057 50.4239 252.004C50.3542 252.433 50.3019 252.863 50.2554 253.293C47.4323 253.136 44.6034 254.664 41.7686 257.882M52.6778 282.628C53.2064 278.359 54.9839 275.018 57.9987 272.602C56.4768 271.551 55.1117 270.203 53.9151 268.553C53.7001 268.257 53.491 267.966 53.2877 267.67C52.7359 266.822 52.2537 265.957 51.8471 265.062C48.507 266.811 46.166 269.581 44.8358 273.363M85.5038 266.741C84.9404 267.362 84.3421 267.966 83.7089 268.553C83.4591 268.791 83.2093 269.024 82.9654 269.25M89.0124 277.569C84.0807 280.223 79.8111 278.916 76.2096 273.653M76.2096 273.653C73.4968 274.838 70.6679 275.431 67.7054 275.431C66.7992 275.431 65.9337 275.373 65.0972 275.262C65.8756 280.816 68.5709 284.452 73.1774 286.172M76.2096 273.653C77.749 272.985 79.2419 272.126 80.6999 271.063M73.1774 286.172C78.1208 285.085 82.8085 282.733 87.2349 279.108M73.1774 286.172C71.0862 286.625 68.9427 286.851 66.7411 286.851H65.9801M53.2935 267.676C54.8735 264.005 57.0693 262.181 59.8808 262.204M51.8529 265.068C50.2729 261.588 49.7384 257.667 50.2612 253.299M65.0972 275.268C62.4425 274.931 60.0783 274.043 57.9987 272.608M83.5405 248.489L92.9218 249.029M82.4368 258.178L90.6506 258.754" stroke="black" stroke-width="4" stroke-linecap="round" stroke-linejoin="round"/>
<path d="M70.9703 197.406C68.9488 202.814 67.5779 208.362 66.8517 214.037C66.6252 215.867 66.4103 217.691 66.207 219.509C66.085 223.505 67.1132 227.188 69.3089 230.552C71.6906 234.234 75.0423 235.733 79.3525 235.059C82.9308 234.519 85.5216 232.492 87.1248 228.977C88.1298 226.799 88.8384 224.51 89.2567 222.117C89.6749 217.389 90.5405 212.602 91.8475 207.769C93.1545 202.948 96.0821 197.656 100.619 191.899L82.53 182.686C77.1103 186.358 73.2532 191.26 70.9645 197.406H70.9703Z" fill="#A9C0F8"/>
<path d="M82.5426 182.686C77.1229 186.357 73.2658 191.26 70.9771 197.406C68.9556 202.814 67.5847 208.361 66.8586 214.037C66.632 215.866 66.4171 217.69 66.2138 219.509C66.0918 223.505 67.12 227.188 69.3157 230.551C71.6974 234.234 75.0491 235.733 79.3594 235.059C82.9376 234.519 85.5284 232.491 87.1317 228.977C88.1366 226.799 88.8453 224.51 89.2635 222.117C89.6818 217.388 90.5473 212.602 91.8543 207.769C93.1613 202.947 96.089 197.655 100.626 191.899" stroke="black" stroke-width="4" stroke-linecap="round" stroke-linejoin="round"/>
<path d="M93.2485 203.807C94.846 200.09 97.3032 196.122 100.632 191.899L82.5427 182.686C77.123 186.358 73.2659 191.26 70.9772 197.406C70.6229 198.359 70.286 199.311 69.9607 200.27C68.9906 203.238 68.2122 206.247 67.6255 209.297C67.3176 210.865 67.0678 212.445 66.8645 214.037C66.638 215.867 66.423 217.691 66.2197 219.509C73.9456 218.754 81.6249 219.619 89.2694 222.117C89.5367 219.067 89.9897 215.995 90.6229 212.904C90.983 211.202 91.3955 209.489 91.8602 207.775C92.2087 206.485 92.6734 205.167 93.2485 203.813V203.807Z" fill="#FEF8DA"/>
<path d="M82.5432 182.686C77.1235 186.357 73.2664 191.26 70.9777 197.406C70.6234 198.358 70.2864 199.311 69.9727 200.269C68.9968 203.238 68.2185 206.247 67.626 209.296C67.3181 210.865 67.0683 212.445 66.865 214.037C66.6384 215.866 66.4235 217.69 66.2202 219.509C73.9461 218.753 81.6254 219.619 89.2699 222.117C89.5371 219.067 89.996 215.994 90.635 212.904C90.9894 211.202 91.396 209.488 91.8607 207.775C92.2092 206.485 92.6739 205.166 93.2606 203.813C94.8523 200.095 97.3095 196.128 100.638 191.905" stroke="black" stroke-width="4" stroke-linecap="round" stroke-linejoin="round"/>
<path d="M83.7054 54.2972C86.1102 53.6524 88.5267 53.0947 90.9549 52.6184C88.4803 52.9902 86.0638 53.5478 83.7054 54.2972ZM190.008 86.5947C189.712 86.281 189.404 85.9789 189.079 85.6943C176.102 74.7387 161.986 65.5664 146.72 58.1717C145.942 57.8174 145.158 57.4746 144.368 57.1377C141.742 56.0282 139.082 55.0581 136.392 54.2217C131.606 52.752 126.714 51.7296 121.725 51.1546C118.925 50.8293 116.09 50.6492 113.22 50.6143C105.692 50.5098 98.2741 51.172 90.9665 52.6126C88.5384 53.0889 86.1219 53.6466 83.717 54.2914C83.4498 54.3727 83.1884 54.4424 82.9212 54.5121C79.8076 55.5809 76.7986 56.9809 73.8941 58.7119C67.4811 62.5749 62.0904 67.7506 57.7163 74.2449C53.3364 80.7509 50.3797 88.0062 48.8578 96.0109C48.2885 98.9793 47.9225 101.965 47.7715 104.968C47.5159 110.429 47.9574 115.941 49.0901 121.518C49.7581 124.759 50.4494 127.971 51.1755 131.155C63.1477 173.926 95.6833 189.11 148.788 176.702L151.094 176.092C168.132 173.2 182.73 165.607 194.876 153.31C196.026 152.137 197.008 150.812 197.821 149.348C199.454 146.74 200.987 143.87 202.41 140.745C208.393 127.629 207.243 113.775 198.954 99.1826C196.328 94.5471 193.348 90.353 190.008 86.6005V86.5947Z" fill="#A9C0F8"/>
<path d="M83.7054 54.3032C83.4382 54.3787 83.1768 54.4484 82.9096 54.5239C79.796 55.587 76.787 56.9811 73.8825 58.718C67.4695 62.5809 62.0788 67.7566 57.7047 74.251C53.3248 80.7569 50.3681 88.0123 48.8462 96.0169C48.2769 98.9853 47.9167 101.971 47.7715 104.974C47.5159 110.435 47.9516 115.947 49.0843 121.524C49.7524 124.765 50.4436 127.978 51.1697 131.161C63.1419 173.932 95.6775 189.116 148.782 176.708L151.089 176.098C168.126 173.206 182.724 165.613 194.87 153.316C196.021 152.143 197.002 150.818 197.815 149.354C199.448 146.746 200.981 143.876 202.405 140.751C208.388 127.635 207.237 113.781 198.96 99.1886C196.328 94.5531 193.348 90.3591 190.014 86.6065C189.712 86.2928 189.404 85.9908 189.073 85.7061C176.096 74.7505 161.98 65.5841 146.715 58.1893C145.936 57.8292 145.152 57.4865 144.362 57.1496C141.736 56.0401 139.076 55.07 136.386 54.2451C131.6 52.7696 126.709 51.7473 121.725 51.1722C118.919 50.8469 116.078 50.6668 113.215 50.632C105.686 50.5274 98.2741 51.1896 90.9665 52.6302M90.9665 52.6302C88.5326 53.1066 86.1161 53.67 83.7112 54.3148C86.0696 53.5597 88.4919 53.002 90.9665 52.6302Z" stroke="black" stroke-width="4" stroke-linecap="round" stroke-linejoin="round"/>
<path d="M81.0446 146.88C80.8762 146.833 80.7135 146.781 80.5509 146.729C80.3359 146.694 80.121 146.665 79.9061 146.641H79.8189V146.729H79.1742C79.0638 146.752 78.9534 146.781 78.8547 146.816C78.7734 146.839 78.6978 146.862 78.6165 146.885C78.5061 146.944 78.3899 146.996 78.2796 147.054C78.1576 147.135 78.024 147.211 77.8904 147.292C77.78 147.373 77.6696 147.455 77.5709 147.548C77.478 147.629 77.3966 147.704 77.3153 147.786C77.2572 147.867 77.2107 147.943 77.1643 148.024C77.1062 148.105 77.0539 148.181 76.9958 148.262C76.9377 148.355 76.8913 148.436 76.8448 148.518C76.8099 148.599 76.7809 148.675 76.7576 148.756C76.7228 148.837 76.6938 148.913 76.6705 148.994C76.6473 149.087 76.6182 149.168 76.5834 149.25C76.5601 149.331 76.5369 149.406 76.5137 149.488V150.708C76.5369 150.789 76.5601 150.865 76.5834 150.946V151.184C76.6182 151.265 76.6473 151.347 76.6705 151.44C76.6938 151.521 76.7228 151.596 76.7576 151.678C76.8157 151.759 76.8622 151.835 76.9087 151.916C76.9668 151.997 77.0191 152.073 77.0772 152.154C77.1352 152.247 77.1817 152.328 77.2282 152.41C77.3211 152.491 77.4024 152.567 77.4837 152.648C77.5825 152.729 77.6929 152.805 77.8033 152.886C77.902 152.979 78.0124 153.06 78.1227 153.142C78.2796 153.223 78.4422 153.298 78.6165 153.38C78.7966 153.438 78.9825 153.49 79.1742 153.548V153.618H80.8703C80.8703 153.618 80.8703 153.571 80.8703 153.548C80.9807 153.513 81.0911 153.484 81.1898 153.461C81.2712 153.426 81.3525 153.397 81.4454 153.374C81.5442 153.316 81.6545 153.269 81.7649 153.223C81.8637 153.13 81.9741 153.049 82.0844 152.967C82.1832 152.886 82.2935 152.811 82.4039 152.729L82.6421 152.491C82.7234 152.398 82.7989 152.317 82.8802 152.235C82.9383 152.154 82.9906 152.079 83.0487 151.997C83.0719 151.916 83.101 151.84 83.1358 151.759C83.1939 151.666 83.2404 151.585 83.2869 151.503C83.3217 151.422 83.3507 151.347 83.374 151.265C83.3972 151.184 83.4263 151.108 83.4611 151.027V150.772C83.4844 150.69 83.5134 150.615 83.5482 150.533V150.04C83.5134 149.958 83.4844 149.883 83.4611 149.801V149.563C83.4263 149.482 83.3972 149.401 83.374 149.308C83.3507 149.226 83.3217 149.151 83.2869 149.07C83.2404 148.988 83.1881 148.913 83.1358 148.831C83.101 148.75 83.0719 148.675 83.0487 148.593C82.9906 148.5 82.9383 148.419 82.8802 148.338C82.7989 148.256 82.7234 148.181 82.6421 148.099C82.584 148.018 82.5375 147.943 82.491 147.861L82.2355 147.606C82.1367 147.524 82.0263 147.449 81.9159 147.368C81.7823 147.286 81.643 147.211 81.5093 147.129C81.3525 147.048 81.1957 146.967 81.033 146.874M95.9735 152.125V152.212H95.3287C95.23 152.247 95.1196 152.276 95.0092 152.299C94.8756 152.357 94.7362 152.41 94.6026 152.468C94.4458 152.549 94.2889 152.625 94.1263 152.706C94.0159 152.787 93.9055 152.863 93.8068 152.944C93.7138 153.025 93.6325 153.107 93.5512 153.2C93.4931 153.281 93.4466 153.357 93.4002 153.438C93.3188 153.519 93.2375 153.595 93.1446 153.676C93.0981 153.757 93.0458 153.833 92.9935 153.914C92.9587 154.007 92.9296 154.088 92.9064 154.17C92.8832 154.251 92.8541 154.327 92.8193 154.408C92.796 154.489 92.7728 154.565 92.7496 154.646C92.7147 154.739 92.6856 154.82 92.6624 154.902V155.866C92.6856 155.947 92.7147 156.023 92.7496 156.104V156.36C92.7728 156.441 92.796 156.517 92.8193 156.598C92.8541 156.679 92.8832 156.755 92.9064 156.836C92.9645 156.917 93.0168 156.999 93.0749 157.092C93.1213 157.173 93.1736 157.248 93.2259 157.33C93.284 157.411 93.3363 157.487 93.3943 157.568C93.4757 157.649 93.5512 157.725 93.6325 157.806C93.7429 157.899 93.8533 157.98 93.952 158.062C94.0624 158.143 94.1727 158.219 94.2715 158.3C94.4283 158.381 94.591 158.457 94.7652 158.538C94.9453 158.596 95.1312 158.648 95.3229 158.707V158.794H96.6938C96.6938 158.759 96.6938 158.73 96.6938 158.707C96.8042 158.683 96.9145 158.654 97.0133 158.619C97.1469 158.561 97.2863 158.515 97.4199 158.468C97.5535 158.375 97.6929 158.294 97.8265 158.213C97.9369 158.131 98.0473 158.056 98.146 157.975C98.2564 157.893 98.3668 157.818 98.4655 157.736C98.5236 157.655 98.5759 157.574 98.634 157.481C98.6921 157.4 98.7386 157.324 98.785 157.243C98.8431 157.161 98.8954 157.086 98.9535 157.005C98.9767 156.923 99.0058 156.842 99.0406 156.749L99.1103 156.511C99.1452 156.429 99.1742 156.354 99.1974 156.273C99.2323 156.191 99.2613 156.11 99.2846 156.017C99.3078 155.936 99.3369 155.86 99.3717 155.779V155.053C99.3369 154.971 99.3078 154.896 99.2846 154.815C99.2613 154.733 99.2323 154.658 99.1974 154.576C99.1742 154.483 99.1452 154.402 99.1103 154.321L99.0406 154.083C98.9825 154.001 98.9302 153.926 98.8721 153.844C98.814 153.763 98.7676 153.682 98.7211 153.589C98.663 153.508 98.6107 153.432 98.5527 153.351C98.4946 153.269 98.4423 153.194 98.3842 153.113C98.2855 153.031 98.1751 152.95 98.0647 152.857C97.9311 152.776 97.7975 152.7 97.6755 152.619C97.507 152.537 97.3444 152.462 97.1818 152.381C97.0249 152.323 96.8622 152.27 96.688 152.212C96.4731 152.189 96.2581 152.16 96.0432 152.125H95.9561M93.7893 140.101C93.8126 140.008 93.8358 139.926 93.859 139.845V138.881C93.8358 138.799 93.8126 138.724 93.7893 138.643C93.7545 138.561 93.7255 138.48 93.7022 138.387C93.6674 138.306 93.6383 138.23 93.6151 138.149C93.5918 138.068 93.5628 137.992 93.5279 137.911C93.4698 137.829 93.4234 137.748 93.3769 137.655C93.3188 137.574 93.2665 137.498 93.2085 137.417C93.1504 137.336 93.1039 137.26 93.0574 137.179C92.9993 137.097 92.9471 137.022 92.889 136.941C92.7902 136.848 92.6799 136.766 92.5695 136.685C92.4359 136.604 92.2965 136.528 92.1629 136.447C92.006 136.365 91.8434 136.29 91.6691 136.209C91.5123 136.151 91.3554 136.098 91.1928 136.04C90.9779 136.017 90.7629 135.988 90.548 135.953H90.4609V136.04H89.8161C89.7057 136.063 89.5953 136.092 89.4966 136.127C89.4153 136.151 89.3339 136.18 89.241 136.214C89.1422 136.261 89.0318 136.313 88.9215 136.365C88.7879 136.447 88.6485 136.522 88.5149 136.604C88.4161 136.697 88.3057 136.778 88.1954 136.859C88.114 136.941 88.0385 137.016 87.9572 137.097C87.8991 137.179 87.8469 137.254 87.7888 137.336C87.7423 137.429 87.69 137.51 87.6377 137.591C87.5796 137.673 87.5273 137.748 87.4693 137.829C87.446 137.911 87.4228 137.986 87.3996 138.068C87.3647 138.149 87.3357 138.23 87.3124 138.323C87.2776 138.404 87.2485 138.48 87.2253 138.561C87.2021 138.643 87.173 138.718 87.1381 138.799C87.1381 138.881 87.1381 138.962 87.1381 139.055C87.1381 139.136 87.1381 139.212 87.1381 139.293C87.1381 139.375 87.1381 139.45 87.1381 139.531C87.1381 139.613 87.1381 139.694 87.1381 139.787C87.1381 139.868 87.1381 139.944 87.1381 140.025C87.173 140.106 87.2021 140.182 87.2253 140.263C87.2253 140.345 87.2253 140.42 87.2253 140.501C87.2485 140.594 87.2776 140.676 87.3124 140.757C87.3357 140.838 87.3647 140.914 87.3996 140.995C87.446 141.077 87.4983 141.152 87.5506 141.233C87.6087 141.326 87.6609 141.408 87.719 141.489C87.7655 141.57 87.8178 141.646 87.8701 141.727C87.9514 141.808 88.0327 141.884 88.1257 141.965C88.2244 142.047 88.3348 142.128 88.4451 142.221C88.5439 142.302 88.6543 142.378 88.7647 142.459C88.9215 142.54 89.0783 142.616 89.241 142.697C89.4327 142.755 89.6244 142.808 89.8161 142.866C90.031 142.889 90.2459 142.918 90.4609 142.953C90.699 142.918 90.943 142.889 91.187 142.866C91.2857 142.831 91.3961 142.802 91.5064 142.779C91.5878 142.755 91.6633 142.726 91.7446 142.691C91.855 142.633 91.9654 142.587 92.0641 142.54C92.1745 142.459 92.2848 142.378 92.3836 142.285C92.494 142.203 92.6102 142.128 92.7205 142.047C92.8018 141.965 92.8773 141.89 92.9587 141.808C93.04 141.727 93.1155 141.646 93.1969 141.553C93.2549 141.472 93.3072 141.396 93.3653 141.315C93.3885 141.233 93.4118 141.158 93.435 141.077C93.4931 140.995 93.5454 140.92 93.6035 140.838C93.6267 140.745 93.6557 140.664 93.6906 140.583C93.7138 140.501 93.7429 140.426 93.7778 140.345V140.106L93.7893 140.101Z" fill="#D4D2EC"/>
<path d="M168.896 87.0483C168.263 88.6864 167.886 89.825 167.764 90.4698C167.799 94.1933 168.687 97.667 170.442 100.885C172.103 103.923 174.508 106.078 177.656 107.356C178.615 107.74 179.625 107.873 180.688 107.763C182.065 107.548 183.407 107.199 184.702 106.711C185.243 95.6687 188.31 85.4857 193.898 76.1566L176.657 81.6112C172.12 83.6095 169.53 85.4218 168.902 87.0483M265.87 58.4918C268.455 55.7616 268.049 54.4139 264.65 54.4604C262.954 54.4952 260.288 55.1052 256.64 56.2902L245.493 59.8452C241.508 63.9231 239.753 68.7561 240.224 74.3443L259.364 63.0808C262.536 61.129 264.703 59.5955 265.87 58.4918ZM214.008 89.7727C213.578 81.4079 216.175 73.9202 221.798 67.3155L193.904 76.1566C188.316 85.4857 185.248 95.6687 184.708 106.711C185.94 106.224 187.125 105.614 188.263 104.882L214.008 89.7727ZM214.008 89.7727L240.23 74.3443C239.753 68.7561 241.513 63.9231 245.498 59.8452L221.804 67.3155C216.181 73.9202 213.584 81.4079 214.014 89.7727H214.008Z" fill="#FFF3D5"/>
<path d="M213.998 89.7724L240.22 74.344C239.743 68.7558 241.503 63.9228 245.488 59.8449L221.794 67.3152C216.171 73.9199 213.574 81.4076 214.004 89.7724L188.259 104.881C187.12 105.613 185.935 106.223 184.704 106.711C183.403 107.199 182.067 107.548 180.69 107.763C179.627 107.873 178.616 107.739 177.658 107.356C174.509 106.078 172.104 103.923 170.443 100.885C168.695 97.6667 167.8 94.193 167.765 90.4695C167.887 89.8247 168.27 88.6861 168.898 87.048C169.531 85.4215 172.116 83.6092 176.653 81.6109L193.894 76.1563L221.788 67.3152M245.482 59.8449L256.63 56.2899C260.278 55.1049 262.95 54.4949 264.64 54.4601C268.038 54.4136 268.445 55.7613 265.86 58.4915C264.698 59.5952 262.532 61.1287 259.354 63.0805L240.214 74.344M184.692 106.711C185.233 95.6684 188.3 85.4854 193.888 76.1563" stroke="black" stroke-width="4" stroke-linecap="round" stroke-linejoin="round"/>
<path d="M91.5835 98.5038C91.0956 95.9421 90.0442 93.8974 88.4293 92.3755C86.8028 90.8303 85.0892 90.2378 83.2826 90.6037C81.4644 90.9465 80.0935 92.1431 79.1699 94.1878C78.2347 96.2151 78.0139 98.5039 78.5135 101.066C78.9957 103.581 80.0529 105.608 81.691 107.142C83.3233 108.675 85.0485 109.268 86.8551 108.925C88.6617 108.571 90.021 107.374 90.933 105.329C91.8682 103.302 92.0889 101.031 91.5777 98.5038M86.7099 93.8509C87.1978 93.8683 87.6277 94.1181 87.9936 94.6003C88.3538 95.094 88.5571 95.6633 88.6036 96.3081C88.6384 96.9471 88.4874 97.4815 88.1563 97.9113C87.8252 98.3238 87.4127 98.5155 86.9248 98.498C86.4485 98.4748 86.0244 98.225 85.6526 97.7487C85.2925 97.2666 85.0892 96.7031 85.0427 96.0583C85.0079 95.4077 85.1589 94.8675 85.5016 94.4318C85.8327 94.0078 86.2335 93.8161 86.6982 93.8509H86.7099Z" fill="black"/>
<path d="M88.0047 94.5947C87.633 94.1125 87.2031 93.8628 86.721 93.8453C86.2563 93.8105 85.8555 94.0022 85.5244 94.4262C85.1816 94.8619 85.0306 95.4021 85.0654 96.0527C85.1119 96.6975 85.3153 97.261 85.6754 97.7431C86.0472 98.2252 86.4712 98.475 86.9476 98.4924C87.4355 98.5099 87.8479 98.3182 88.179 97.9058C88.5101 97.4701 88.6553 96.9357 88.6263 96.3025C88.5798 95.6577 88.3765 95.0884 88.0164 94.5947H88.0047Z" fill="white"/>
<path d="M91.584 98.5034C92.0894 101.03 91.8744 103.302 90.9392 105.329C90.0272 107.374 88.6679 108.57 86.8613 108.925C85.0548 109.267 83.3295 108.675 81.6972 107.141C80.0649 105.608 79.0019 103.586 78.5198 101.065C78.0202 98.5034 78.2351 96.2147 79.1762 94.1874C80.0998 92.1426 81.4707 90.946 83.2889 90.6033C85.0954 90.2373 86.8091 90.8298 88.4356 92.375C90.0446 93.9027 91.096 95.9416 91.5898 98.5034H91.584Z" stroke="black" stroke-width="4" stroke-linecap="round" stroke-linejoin="round"/>
<path d="M88.1399 118.334C85.5898 118.834 83.487 119.601 81.8257 120.64C80.1643 121.68 79.4324 122.685 79.6241 123.661C79.8158 124.637 80.873 125.288 82.8016 125.607C84.7301 125.944 86.9723 125.863 89.5166 125.357C92.0609 124.852 94.1521 124.091 95.8135 123.051C97.4864 122.023 98.23 121.018 98.0383 120.042C97.8466 119.066 96.7836 118.416 94.8376 118.079C92.909 117.742 90.6726 117.823 88.1341 118.323L88.1399 118.334Z" fill="#CF80A6"/>
<path d="M138.708 89.2604C138.22 86.6987 137.168 84.654 135.553 83.132C133.927 81.5869 132.213 80.9944 130.407 81.3603C128.588 81.7031 127.218 82.8997 126.294 84.9444C125.359 86.9717 125.138 89.2604 125.638 91.8222C126.12 94.3374 127.177 96.3647 128.815 97.8983C130.447 99.4318 132.173 100.024 133.979 99.6816C135.786 99.3273 137.145 98.1306 138.057 96.0859C138.992 94.0586 139.213 91.7873 138.702 89.2604M133.834 84.6075C134.322 84.6249 134.752 84.8747 135.118 85.3569C135.478 85.8506 135.681 86.4199 135.728 87.0647C135.762 87.7036 135.611 88.2381 135.28 88.6679C134.949 89.0804 134.537 89.2721 134.049 89.2546C133.572 89.2314 133.148 88.9816 132.777 88.5053C132.417 88.0231 132.213 87.4597 132.167 86.8149C132.132 86.1643 132.283 85.6241 132.626 85.1884C132.957 84.7643 133.358 84.5727 133.822 84.6075H133.834Z" fill="black"/>
<path d="M135.123 85.3572C134.752 84.875 134.322 84.6253 133.84 84.6078C133.375 84.573 132.974 84.7647 132.643 85.1887C132.3 85.6244 132.149 86.1646 132.184 86.8152C132.231 87.46 132.434 88.0235 132.794 88.5056C133.166 88.9878 133.59 89.2375 134.066 89.255C134.554 89.2724 134.967 89.0807 135.298 88.6683C135.629 88.2326 135.774 87.6982 135.745 87.065C135.698 86.4202 135.495 85.8509 135.135 85.3572H135.123Z" fill="white"/>
<path d="M138.708 89.2607C139.213 91.7875 138.998 94.0588 138.063 96.0861C137.151 98.1309 135.791 99.3275 133.985 99.6819C132.178 100.025 130.453 99.4321 128.821 97.8985C127.188 96.365 126.125 94.3435 125.643 91.8224C125.144 89.2607 125.359 86.972 126.3 84.9447C127.223 82.8999 128.594 81.7033 130.412 81.3606C132.219 80.9946 133.933 81.5871 135.559 83.1323C137.168 84.66 138.22 86.699 138.713 89.2607H138.708Z" stroke="black" stroke-width="4" stroke-linecap="round" stroke-linejoin="round"/>
<path d="M135.257 109.098C132.707 109.598 130.604 110.364 128.942 111.404C127.281 112.444 126.549 113.449 126.741 114.425C126.932 115.401 127.99 116.051 129.918 116.371C131.847 116.708 134.089 116.626 136.633 116.121C139.178 115.616 141.269 114.855 142.93 113.815C144.603 112.787 145.347 111.782 145.155 110.806C144.963 109.83 143.9 109.179 141.954 108.842C140.026 108.505 137.789 108.587 135.251 109.086L135.257 109.098Z" fill="#CF80A6"/>
<path d="M137.79 41.7211C137.563 40.9659 136.216 38.5262 133.741 34.4019C122.768 41.4364 107.648 48.3432 88.3794 55.1164C88.5595 55.1048 88.7221 55.0932 88.8732 55.0815C93.8979 54.6285 101.275 54.4484 111.011 54.5413C114.624 54.5646 117.958 54.5646 121.02 54.5413C123.186 53.7397 124.441 53.2866 124.778 53.1878C127.973 52.0144 130.494 50.9398 132.33 49.9697C136.89 47.5067 138.708 44.7591 137.784 41.7211H137.79Z" fill="#775632"/>
<path d="M146.213 52.4558C146.718 52.2293 147.206 52.0027 147.671 51.7762C142.971 52.723 138.318 53.4201 133.712 53.8616C130.221 54.1869 125.992 54.4134 121.025 54.5412C117.964 54.5645 114.63 54.5645 111.017 54.5412C101.281 54.4483 93.9035 54.6342 88.8788 55.0815C88.7336 55.0931 88.571 55.1047 88.3851 55.1163C79.8809 55.8947 71.3359 57.5851 62.7388 60.1817C52.608 63.2313 43.7901 66.2229 36.285 69.1564C30.8886 71.2709 26.1834 73.3388 22.1752 75.372C7.14759 83.0513 0.734567 90.5564 2.93614 97.8815C4.09792 101.721 6.32273 103.818 9.61056 104.184C11.7657 104.434 15.373 103.795 20.4326 102.273C22.1926 101.733 26.6713 100.199 33.8627 97.6839C42.4018 94.7272 51.1674 91.5962 60.1654 88.3026C86.0441 78.8399 105.405 71.1895 118.243 65.3516C133.183 58.5319 142.501 54.2334 146.207 52.4616M175.594 27.1581C174.194 22.5632 168.629 20.8728 158.894 22.0927C153.764 22.7375 146.358 24.5208 136.669 27.4427C135.96 27.646 134.008 28.407 130.825 29.7314C131.929 31.4683 132.904 33.0309 133.741 34.4076C136.216 38.5319 137.563 40.9658 137.79 41.7268C138.713 44.7648 136.895 47.5125 132.335 49.9754C130.494 50.9455 127.979 52.0202 124.784 53.1936C124.447 53.2923 123.192 53.7454 121.025 54.547C125.992 54.4251 130.221 54.1985 133.712 53.8674C138.318 53.4259 142.971 52.7347 147.671 51.782C155.124 48.2037 160.776 45.247 164.627 42.906C169.315 40.0364 172.504 37.3875 174.194 34.9594C175.931 32.5081 176.402 29.9057 175.6 27.1523M56.4245 20.6172C49.297 22.7491 43.7843 25.5606 39.8749 29.0518C36.2386 32.328 33.8801 36.278 32.7939 40.9077C31.8354 45.0843 31.8645 50.0568 32.881 55.8134C33.5258 59.5369 34.6585 63.9865 36.285 69.1622C43.7959 66.2287 52.6138 63.2313 62.7388 60.1875C71.3301 57.5909 79.8809 55.9005 88.3851 55.1221C107.647 48.3489 122.768 41.4422 133.747 34.4076C132.91 33.0309 131.94 31.4741 130.831 29.7314C130.471 29.1447 130.093 28.5406 129.698 27.919C124.819 20.0944 121.827 15.4764 120.723 14.0648C116.227 8.39531 112.149 4.90997 108.478 3.59716C106.579 2.89428 104.511 2.62707 102.263 2.78391C100.264 2.9059 97.8362 3.39966 94.9782 4.25937C91.3418 5.35726 86.0789 8.28494 79.1896 13.0482C76.6801 14.7735 74.4089 16.4581 72.3641 18.0962C73.2122 18.0149 74.0719 17.9684 74.9375 17.9451C76.4303 17.8754 79.3987 17.8057 83.8483 17.7244C87.293 17.6315 89.8954 17.5211 91.6555 17.3875C89.8954 17.5211 87.293 17.6373 83.8483 17.7244C79.3987 17.8057 76.4303 17.8754 74.9375 17.9451C74.0661 17.9684 73.2122 18.0207 72.3641 18.0962C65.9859 18.4912 60.6708 19.3335 56.4245 20.6172Z" fill="#DE9747"/>
<path d="M36.2851 69.1564C34.6586 63.9865 33.5259 59.5368 32.8811 55.8075C31.8645 50.0509 31.8355 45.0785 32.7939 40.9019C33.8802 36.2722 36.2386 32.3221 39.875 29.0459C43.7844 25.5548 49.297 22.7433 56.4245 20.6114C60.6708 19.3218 65.9802 18.4853 72.3642 18.0903C74.4089 16.4522 76.686 14.7734 79.1896 13.0424C86.079 8.27908 91.3418 5.34559 94.9782 4.25351C97.8362 3.3938 100.264 2.90585 102.263 2.77805C104.511 2.62121 106.584 2.88842 108.478 3.5913C112.149 4.8983 116.227 8.38945 120.723 14.0589C121.833 15.4705 124.824 20.0886 129.698 27.9132C130.093 28.5347 130.471 29.1389 130.831 29.7256C134.014 28.4069 135.96 27.6402 136.675 27.4368C146.364 24.515 153.77 22.7258 158.899 22.0868C168.635 20.867 174.2 22.5574 175.6 27.1522C176.402 29.9056 175.931 32.508 174.194 34.9594C172.498 37.3875 169.309 40.0364 164.627 42.9059C160.776 45.2411 155.124 48.2037 147.671 51.782C147.206 52.0085 146.724 52.235 146.213 52.4616C142.507 54.2333 133.189 58.5319 118.249 65.3515C105.411 71.1895 86.0499 78.8398 60.1713 88.3025C51.1733 91.602 42.4019 94.7272 33.8686 97.6839C26.6772 100.199 22.1985 101.733 20.4384 102.273C15.3789 103.795 11.7715 104.434 9.61642 104.184C6.32859 103.824 4.10378 101.721 2.942 97.8814C0.740426 90.5506 7.15345 83.0513 22.1811 75.3719C26.1892 73.3388 30.8944 71.265 36.2909 69.1564C43.8018 66.2229 52.6197 63.2255 62.7446 60.1816C71.336 57.585 79.8867 55.8947 88.3909 55.1163C107.653 48.3431 122.774 41.4363 133.753 34.4017M133.753 34.4017C132.916 33.025 131.946 31.4682 130.837 29.7256M133.753 34.4017C136.227 38.526 137.575 40.96 137.801 41.7209C138.725 44.759 136.907 47.5066 132.347 49.9696C130.506 50.9397 127.99 52.0143 124.795 53.1877C124.458 53.2865 123.204 53.7396 121.037 54.5412C126.004 54.4192 130.232 54.1926 133.724 53.8615C138.33 53.4201 142.983 52.7288 147.682 51.7761M72.37 18.0903C73.2181 18.009 74.0778 17.9625 74.9433 17.9393C76.4362 17.8696 79.4046 17.7999 83.8542 17.7185C87.2989 17.6256 89.9013 17.5152 91.6614 17.3816M88.4026 55.1105C88.5826 55.0988 88.7453 55.0872 88.8963 55.0756C93.921 54.6225 101.298 54.4424 111.034 54.5354C114.647 54.5586 117.981 54.5586 121.043 54.5354" stroke="black" stroke-width="4" stroke-linecap="round" stroke-linejoin="round"/>
<path d="M191.395 120.676C191.325 124.039 190.291 127.193 188.287 130.15C185.51 134.269 181.694 136.801 176.826 137.748C171.958 138.695 167.451 137.789 163.332 135.012C160.381 133.02 158.243 130.481 156.931 127.391" stroke="black" stroke-width="4" stroke-linecap="round" stroke-linejoin="round"/>
</svg>
